<svg xmlns="http://www.w3.org/2000/svg" viewBox="0 0 47.83 58.62"><defs><style>.cls-1{fill:#0d8643;}.cls-2{fill:#fff;}</style></defs><g id="Layer_2" data-name="Layer 2"><g id="Layer_1-2" data-name="Layer 1"><path class="cls-1" d="M8.6,58.62C11,47.18,13,35.8,9.56,24.22l-1.17,2c-2.94-1.32-5.85-2.65-8-5.14A1.9,1.9,0,0,1,.07,19.5C1,17.27,1.88,15,3,12.92c2.51-4.79,6.85-7,11.89-8.16l.12,0c2.26-.5,2.29-.5,2.25-2.83,0-.86.18-1.34,1.12-1.49A31.9,31.9,0,0,1,29,.46C29.8.61,30.13,1,30,1.85a20.62,20.62,0,0,0,0,2.23c1.77.47,3.5.88,5.2,1.38a14.75,14.75,0,0,1,9.39,7.3c1.12,2.11,2,4.37,3,6.53a1.43,1.43,0,0,1-.38,1.95c-1.64,1.25-3.31,2.48-5,3.62a27.23,27.23,0,0,1-2.86,1.43l-1.2-2.08c-3.36,11.6-1.41,23,1,34.41Zm15.06-46.9H24c.76-2.41,1.52-4.81,2.27-7.16H20.92ZM17.81,2.06,17,8.23l3.67-2.91ZM30.2,8.23l-.82-6.16L26.51,5.34ZM24,12.42h-.21v4.74H24Z"/><path class="cls-2" d="M23.66,11.72,20.92,4.57h5.32c-.75,2.35-1.51,4.75-2.27,7.16Z"/><path class="cls-2" d="M17.81,2.06l2.87,3.26L17,8.23Z"/><path class="cls-2" d="M30.2,8.23,26.51,5.34l2.87-3.27Z"/><path class="cls-2" d="M24,12.42v4.74h-.21V12.42Z"/></g></g></svg>