
<svg xmlns="http://www.w3.org/2000/svg" viewBox="0 0 44.14 60.18"><defs><style>.cls-1{fill:#0d8643;}</style></defs><g id="Layer_2" data-name="Layer 2"><g id="Layer_1-2" data-name="Layer 1"><path class="cls-1" d="M10.83,2.9,27.25,6.37l0,.17L20,9.09l-8.46,3c-.48.16-.78.31-.77.92,0,9.24,0,18.47,0,27.7a3.75,3.75,0,0,0,.07.52c1.77-.17,3.49-.41,5.23-.5,6.84-.37,13.64-.2,20.25,1.89a15.14,15.14,0,0,1,3.89,1.86c2,1.37,1.94,3.1,0,4.53l-1,.7c.87.43,1.68.77,2.42,1.22A8.64,8.64,0,0,1,43.4,52.3a2.25,2.25,0,0,1,.05,3.29,10.53,10.53,0,0,1-2.77,2,26.57,26.57,0,0,1-9.44,2.32,43.21,43.21,0,0,1-16.17-1.16,19.19,19.19,0,0,1-4.76-2.07C8.14,55.37,8,54,9.42,51.86A31.58,31.58,0,0,1,6.27,51a26.06,26.06,0,0,1-4.58-2c-2.27-1.4-2.22-3.23,0-4.75a19.51,19.51,0,0,1,7.28-2.64c.65-.14.78-.4.78-1q0-18.6,0-37.2a1.67,1.67,0,0,0-.31-1c-.66-.86-.69-1.58,0-2.16a1.41,1.41,0,0,1,2,.12c.54.62.42,1.41-.34,2.15A1.59,1.59,0,0,0,10.83,2.9ZM14.49,46l0-.33a29.79,29.79,0,0,0-3.25-.24,5.52,5.52,0,0,0-1.7.62C10.46,46.91,13.12,47,14.49,46Zm.59-.57c-.05-.93-1.39-1.48-3.44-1.34-.52,0-1,.05-.78.72Z"/></g></g></svg>