<svg xmlns="http://www.w3.org/2000/svg" viewBox="0 0 149.19 149.16"><defs><style>.cls-1,.cls-7{fill:#fff}.cls-2{fill:#0c233f}.cls-3{fill:#f3e99a}.cls-4,.cls-6{fill:#0d8643}.cls-5{fill:#33613f}.cls-6,.cls-7{stroke:#0c233f;stroke-miterlimit:10}</style></defs><g id="Layer_2" data-name="Layer 2"><g id="Layer_1-2" data-name="Layer 1"><path class="cls-1" d="M74.59 1.66a72.91 72.91 0 0 0-72.9 71.6H147.5a72.92 72.92 0 0 0-72.91-71.6Z"/><path class="cls-2" d="M149.19 74.91H0v-1.68A74.58 74.58 0 0 1 126.88 21.4a74.12 74.12 0 0 1 22.28 51.83ZM3.39 71.6h142.4A71.26 71.26 0 0 0 24.63 23.76 70.87 70.87 0 0 0 3.39 71.6ZM74.59 147.51a72.92 72.92 0 0 0 72.91-71.6H1.69a72.92 72.92 0 0 0 72.9 71.6Z"/><path class="cls-2" d="M74.59 149.16A74.58 74.58 0 0 1 0 75.94v-1.69h149.19v1.69a74.58 74.58 0 0 1-74.57 73.22Zm-71.2-71.6a71.27 71.27 0 0 0 121.17 47.84 70.82 70.82 0 0 0 21.23-47.84ZM1.67 74.58ZM147.52 74.58ZM1.67 75.91v-1.3ZM147.52 73.26v1.3ZM147.52 74.6v1.31ZM1.67 73.26v1.3-1.3Z"/><path class="cls-3" d="M125.34 78c.06-1.36.26-5.73.2-6.66h20.1c0 .59 0 1.17.05 1.75V75.81c0 1.57-.05 9.48-1 10.85l-20.27-1c.3-1.97.85-6.05.92-7.66Z"/><path class="cls-2" d="m145.1 87.55-21.72-1 .15-1c.33-2 .87-6 .94-7.58v-.42c.06-1.46.23-5.35.18-6.14v-.93h21.86v.84c0 .59 0 1.18.05 1.77v3.22c-.09 6.57-.45 9.82-1.19 10.86Zm-19.69-2.7 18.71.9c.25-.83.61-3.13.69-9.47v-4.09h-18.39c0 1.25-.1 3.37-.19 5.4v.42c-.08 1.42-.49 4.64-.82 6.84Z"/><circle class="cls-1" cx="74.59" cy="74.58" r="48.55"/><path class="cls-2" d="M74.59 26a48.55 48.55 0 1 1-48.54 48.58A48.54 48.54 0 0 1 74.59 26m0-2.66a51.2 51.2 0 1 0 51.2 51.2 51.25 51.25 0 0 0-51.2-51.2Z"/><g id="_6oTy15.tif" data-name="6oTy15.tif"><path class="cls-4" d="M116.06 88.9c0 .4-.07.77-.11 1.14a11 11 0 0 1-2.19 5.75 6.12 6.12 0 0 1-4 2.56A74.31 74.31 0 0 1 98.5 99a18 18 0 0 1-4.44-.58c-.17 0-.36-.1-.42-.3s.15-.26.26-.36l5.2-4.51a.76.76 0 0 1 .31-.23c.85-.23 1-.93.35-1.68a6.26 6.26 0 0 0-1.5-1.34c-2.65-1.68-5.2-3.51-7.92-5.08-.14-.08-.24-.18-.21-.34s.23-.13.36-.13h4.29a7.33 7.33 0 0 1-.27-3.54 7.32 7.32 0 0 1-.1-1c-.2 0-.25-.15-.25-.39v-1.1a.74.74 0 0 1 0-.21v-.1a.84.84 0 0 1 0-.47 6.7 6.7 0 0 1-.07-1.1 1.23 1.23 0 0 1 0-.27v-.97a.8.8 0 0 1 0-.15v-.06a1.23 1.23 0 0 0 0-.2.19.19 0 0 1 0-.08c0-.3-.06-.6-.08-.9a2.51 2.51 0 0 0 0-.27H63.48l.21.51c1.78 4.64 1.6 9.09-1.31 13.27a6.51 6.51 0 0 1-1.64 1.71 22.84 22.84 0 0 0-2.57 2 4.41 4.41 0 0 1-2.91 1.18 4.06 4.06 0 0 1-3.33-1c-.59-.58-1.22-1.12-1.76-1.76a9.55 9.55 0 0 1-2.25-4.36.9.9 0 0 1 .08-.7 7.21 7.21 0 0 1 1.64-1.92 3.25 3.25 0 0 1 3.2-.65c.32.11.65.19 1 .28l2.26.63c-1.68-1.47-3.41-2.86-5.12-4.25-.18-.15-.3-.1-.47 0l-2.94 1.52a.57.57 0 0 0-.31.44c-.29 1.27-.59 2.53-.9 3.79a.91.91 0 0 0 .1.74 38.22 38.22 0 0 1 2.33 4.66 1.85 1.85 0 0 0 .34.53c.73.87 1.44 1.76 2.2 2.62.27.32.16.47-.13.62a1.71 1.71 0 0 1-1.24.06 5.46 5.46 0 0 1-1.82-.91 20.9 20.9 0 0 1-4-3.67 13.53 13.53 0 0 1-1.59-3.21.66.66 0 0 1 0-.2 6.83 6.83 0 0 1 2.13-4.82 10 10 0 0 1 2.95-2 1.23 1.23 0 0 0-.6-.13 7.68 7.68 0 0 1-3.49-1.12c-.58-.39-.57-.39-1 .11a4.51 4.51 0 0 0-.68.94 8.15 8.15 0 0 0-.73 5.88 18.84 18.84 0 0 0 5.32 8.71 2.87 2.87 0 0 0 .92.62 10.46 10.46 0 0 0 5.81.87 1.5 1.5 0 0 1 .66.07A45.91 45.91 0 0 1 61 98.38a.25.25 0 0 1 0 .09 5.08 5.08 0 0 1-1.19.41 23.77 23.77 0 0 1-5.39.47 68.72 68.72 0 0 1-7.31-.4 9.13 9.13 0 0 1-2.64-.4 7.87 7.87 0 0 1-4.14-4 12.87 12.87 0 0 1-1.23-5.29.8.8 0 0 0-.12.21 14.53 14.53 0 0 0-.4 4.64 6.64 6.64 0 0 0 3.65 5.73 10 10 0 0 0 4.68 1l20.65-.14h.47a1.17 1.17 0 0 0-.52-.36 10 10 0 0 1-1.89-1.19c-1.73-1.5-1.66-3 .21-4.37a16.33 16.33 0 0 1 2.81-1.55 19.26 19.26 0 0 1 7.76-1.45 42.09 42.09 0 0 1 10.42 1.31A9 9 0 0 1 90 94.18a1.78 1.78 0 0 1 .49 2.82 4 4 0 0 1-.32.38l-2.69 3h2.78l17.58.05a13.35 13.35 0 0 0 2.53-.18 9 9 0 0 0 2.71-.92 6.46 6.46 0 0 0 3-3.5 12 12 0 0 0-.02-6.93Zm-28.82-4.42a6.29 6.29 0 0 1 2.07.81c.14.07.15.2.17.33.09.66.18 1.32.28 2a1 1 0 0 1-.11.52c-.09.23-.2.24-.4.1l-5.43-3.64a.76.76 0 0 1-.12-.15c1.21 0 2.38-.08 3.54.03Zm-6.19.35a.53.53 0 0 1 .55-.39h1.34a11.06 11.06 0 0 0-2.26 2.47 6.66 6.66 0 0 1 .37-2.08Zm-6.38 6.25a18.42 18.42 0 0 0-6.38 1.45c-.91.43-1.78.94-2.66 1.43a5.46 5.46 0 0 0-.79.57c-1.81 1.45-1.9 3.1-.27 4.73l.61.58a1.51 1.51 0 0 1-1.12-.19c-.38-.14-.75-.31-1.13-.46-.15-.06-.3-.13-.17-.31s0-.4-.21-.53L57 95.16c-.21-.12-.41-.18-.12-.47a47.22 47.22 0 0 1 9.34-7.57 13.79 13.79 0 0 1 2.74-1.24.5.5 0 0 1 .5 0q4 2.48 8.09 4.91l.31.21a29.08 29.08 0 0 0-3.19.08Zm3.62-.72q-3.85-2.36-7.71-4.67a1.46 1.46 0 0 1-.16-.17 18.44 18.44 0 0 1 7.45.67A7.6 7.6 0 0 1 80 87.31c.21.16.24.28.1.51-.48.79-.94 1.59-1.4 2.4-.09.21-.18.28-.41.14Zm14.49 7.85c.19.21.13.34-.14.45-.65.26-1.29.54-1.93.81a4.19 4.19 0 0 1-1.45.12l1.28-1.43a5.75 5.75 0 0 0 1.07-1.51 2.18 2.18 0 0 0-.61-2.72 6.87 6.87 0 0 0-2.93-1.37 50.81 50.81 0 0 0-8.85-1.49s0-.1 0-.14a26.6 26.6 0 0 1 3.17-5c.75-.88.76-.88 1.7-.26 1.79 1.19 3.59 2.37 5.36 3.57.33.22.39.11.59-.16a3.6 3.6 0 0 0 .31-2.9v-.38c0-.03 0 0 .06 0a4.55 4.55 0 0 1 1.1.61l6.41 4.2a5.79 5.79 0 0 1 1.08.99c.26.28.35.45-.06.78-1.2 1-2.33 2-3.49 3-.83.72-1.66 1.46-2.5 2.17-.29.2-.43.37-.17.66Z"/><path class="cls-4" d="M46.84 101.06a10 10 0 0 1-4.68-1 6.86 6.86 0 0 1-3.77-5.9 15.11 15.11 0 0 1 .4-4.71.63.63 0 0 1 .1-.2.28.28 0 0 0 .06-.08l.38-.61v.72a12.67 12.67 0 0 0 1.2 5.2 7.74 7.74 0 0 0 4 3.91 6.1 6.1 0 0 0 1.92.34h.65c2.72.27 5.1.4 7.29.4a24.07 24.07 0 0 0 5.34-.47 4.45 4.45 0 0 0 .82-.25l-1.47-.86a30.76 30.76 0 0 0-5.38-2.7 1.11 1.11 0 0 0-.56-.06 10.6 10.6 0 0 1-5.93-.89 3 3 0 0 1-1-.66 19 19 0 0 1-5.39-8.82 8.47 8.47 0 0 1 .76-6 4.29 4.29 0 0 1 .72-1c.53-.58.65-.59 1.29-.15a7.72 7.72 0 0 0 3.41 1.1h.14a1 1 0 0 1 .56.14l.35.23-.39.16a9.89 9.89 0 0 0-2.89 2 6.56 6.56 0 0 0-2.05 4.68s0 .05 0 .06c.15.32.29.66.43 1a7.45 7.45 0 0 0 1.12 2.15 21.53 21.53 0 0 0 3.92 3.64 5.57 5.57 0 0 0 1.76.87 1.5 1.5 0 0 0 1.08 0c.15-.08.17-.12.17-.12a.49.49 0 0 0-.11-.17c-.5-.56-1-1.15-1.45-1.72L49 90.4a2.14 2.14 0 0 1-.37-.59 40 40 0 0 0-2.32-4.63 1.1 1.1 0 0 1-.12-.9c.34-1.39.66-2.75.89-3.79a.85.85 0 0 1 .43-.59c1-.51 2-1 2.92-1.56a.55.55 0 0 1 .71 0l.76.62c1.44 1.17 2.93 2.38 4.36 3.64l.73.63-3.46-1c-.24-.07-.48-.13-.72-.22a3 3 0 0 0-3 .62 6.86 6.86 0 0 0-1.59 1.86.67.67 0 0 0-.06.54 9.25 9.25 0 0 0 2.21 4.27 14.75 14.75 0 0 0 1.17 1.2c.19.18.39.36.57.55a3.86 3.86 0 0 0 3.17 1A4.16 4.16 0 0 0 58 91a23.07 23.07 0 0 1 2.59-2 6.29 6.29 0 0 0 1.59-1.65c2.73-3.93 3.15-8.2 1.28-13.07a3 3 0 0 0-.12-.29l-.21-.52h31.04l.07.44c0 .23 0 .43.05.64v.75a3.46 3.46 0 0 0 0 .66v.31a1.14 1.14 0 0 0 0 .25 7.08 7.08 0 0 0 .06 1.09v.06a.59.59 0 0 0 0 .35V79.63h.18v.18a6.52 6.52 0 0 0 .1 1v.07a7 7 0 0 0 .37 3.5l.09.29h-4.57a.53.53 0 0 1-.13 0s0 0 .1.08c1.7 1 3.37 2.09 5 3.16 1 .64 2 1.3 2.95 1.92a6.78 6.78 0 0 1 1.55 1.37 1.43 1.43 0 0 1 .39 1.31 1.11 1.11 0 0 1-.86.71.64.64 0 0 0-.15.12l-.07.06-5.3 4.5-.12.09-.08.05s.08.08.25.13a17.26 17.26 0 0 0 4.41.58 73.44 73.44 0 0 0 11.22-.61 5.85 5.85 0 0 0 3.87-2.48 10.63 10.63 0 0 0 2.18-5.66c0-.24.06-.49.08-.75l.13-1.42.33 1a12.32 12.32 0 0 1 0 7.07 6.68 6.68 0 0 1-3.13 3.62 9.06 9.06 0 0 1-2.77 1 14.37 14.37 0 0 1-2.57.18H87l3-3.37c.11-.12.21-.23.3-.35a1.57 1.57 0 0 0-.47-2.52 8 8 0 0 0-2.68-1l-.36-.08A41.56 41.56 0 0 0 76.43 92a18.51 18.51 0 0 0-7.67 1.43A15 15 0 0 0 66 95a2.23 2.23 0 0 0-.2 4 8.77 8.77 0 0 0 1.73 1.1l.12.07h.11a1.11 1.11 0 0 1 .49.37l.24.35h-.89l-20.66.14ZM39 90.56a13.1 13.1 0 0 0-.19 3.52 6.4 6.4 0 0 0 3.54 5.56 9.55 9.55 0 0 0 4.57 1l20.41-.14a9.35 9.35 0 0 1-1.8-1.16 2.65 2.65 0 0 1 .22-4.7A16.22 16.22 0 0 1 68.58 93a19.16 19.16 0 0 1 7.84-1.47 42.37 42.37 0 0 1 10.48 1.34l.36.09a8.23 8.23 0 0 1 2.82 1 2.21 2.21 0 0 1 1.08 1.42 2.24 2.24 0 0 1-.5 1.71 3.68 3.68 0 0 1-.31.38L88 100.16h19.88a14.21 14.21 0 0 0 2.48-.17 8.48 8.48 0 0 0 2.64-.9 6.23 6.23 0 0 0 2.93-3.39 11.48 11.48 0 0 0 .25-5.58 11 11 0 0 1-2.22 5.76 6.28 6.28 0 0 1-4.16 2.64 72.92 72.92 0 0 1-11.28.61A17.74 17.74 0 0 1 94 98.6c-.21-.07-.48-.14-.57-.45a.45.45 0 0 1 .26-.53l.07-.05L99 93.05V93a.91.91 0 0 1 .34-.22.74.74 0 0 0 .55-.42 1 1 0 0 0-.31-.91 6.06 6.06 0 0 0-1.44-1.27c-1-.63-2-1.29-3-1.93-1.6-1.06-3.26-2.16-5-3.14a.55.55 0 0 1-.32-.57c0-.18.15-.37.52-.32h4a7.57 7.57 0 0 1-.19-3.32c0-.28-.07-.58-.09-.88a.56.56 0 0 1-.26-.55v-1.04a1.21 1.21 0 0 1 0-.18v-.1a1 1 0 0 1-.05-.52 7.4 7.4 0 0 1-.06-1.11 1.43 1.43 0 0 1 0-.29v-.3a6.18 6.18 0 0 1 0-.65.33.33 0 0 1 0-.15 1 1 0 0 1 0-.17v-1.08h-30l.09.21c1.93 5 1.49 9.42-1.33 13.48a6.8 6.8 0 0 1-1.69 1.76 23.43 23.43 0 0 0-2.55 2 4.64 4.64 0 0 1-3 1.25 4.29 4.29 0 0 1-3.49-1.1q-.28-.29-.57-.54A14.1 14.1 0 0 1 50 89.65a9.6 9.6 0 0 1-2.31-4.46 1.12 1.12 0 0 1 .12-.86 7.18 7.18 0 0 1 1.69-2 3.43 3.43 0 0 1 3.4-.69c.23.08.46.14.7.21l1.59.44c-1.2-1-2.42-2-3.61-3l-.77-.62c-.07-.06-.07-.07-.22 0-1 .53-2 1.06-2.93 1.57-.12.06-.16.13-.2.3-.24 1-.55 2.41-.9 3.8a.68.68 0 0 0 .08.57A41 41 0 0 1 49 89.65a2.09 2.09 0 0 0 .31.47L50 91c.47.57 1 1.15 1.45 1.71a.68.68 0 0 1 .21.54.65.65 0 0 1-.4.42 2 2 0 0 1-1.39.09 6.15 6.15 0 0 1-1.9-1 21.35 21.35 0 0 1-4-3.71 7.74 7.74 0 0 1-1.2-2.27c-.13-.33-.27-.67-.42-1a.68.68 0 0 1 0-.27 7.08 7.08 0 0 1 2.2-5A12.06 12.06 0 0 1 47 78.78a7.82 7.82 0 0 1-3.52-1.15c-.42-.28-.42-.28-.76.07a4.62 4.62 0 0 0-.65.9 7.89 7.89 0 0 0-.71 5.72 18.41 18.41 0 0 0 5.27 8.62 2.65 2.65 0 0 0 .85.57 10.17 10.17 0 0 0 5.68.86 1.48 1.48 0 0 1 .77.08 30.31 30.31 0 0 1 5.46 2.74c.57.34 1.15.68 1.73 1a.27.27 0 0 1 .13.17l.1.19-.19.11a4.71 4.71 0 0 1-1.24.43 23.35 23.35 0 0 1-5.44.48 71.18 71.18 0 0 1-7.33-.4h-.63a6.19 6.19 0 0 1-2.07-.37 8.15 8.15 0 0 1-4.26-4.12A12.46 12.46 0 0 1 39 90.56Zm25.86 9.55a1.75 1.75 0 0 1-.69-.18l-.2-.08c-.23-.08-.46-.18-.68-.27s-.3-.13-.45-.18-.29-.12-.34-.3a.37.37 0 0 1 .08-.34.26.26 0 0 0 0-.11l-.17-.1-3.47-2-2.2-1.26a.51.51 0 0 1-.32-.35.59.59 0 0 1 .2-.43 47.59 47.59 0 0 1 9.39-7.6 13.64 13.64 0 0 1 2.79-1.27.67.67 0 0 1 .67 0l6.23 3.77 1.86 1.13.16.11.77.53h-.74a28.75 28.75 0 0 0-3.12.07 18.64 18.64 0 0 0-6.31 1.44c-.72.34-1.43.74-2.12 1.13l-.52.29a5.84 5.84 0 0 0-.77.55 2.62 2.62 0 0 0-.24 4.41l.38.36.48.46-.34.11a1.06 1.06 0 0 1-.32.11ZM63 99l.45.19.67.26.22.09a1.82 1.82 0 0 0 .3.11 2.5 2.5 0 0 1-.23-.23 3.43 3.43 0 0 1-1.22-2.6 3.48 3.48 0 0 1 1.5-2.45 5.72 5.72 0 0 1 .83-.59l.52-.29c.69-.4 1.41-.8 2.15-1.14a18.7 18.7 0 0 1 6.46-1.48c.78-.06 1.55-.1 2.4-.09l-1.53-.92-6.22-3.79c-.09-.06-.13 0-.27 0a13.76 13.76 0 0 0-2.74 1.24A47.37 47.37 0 0 0 57 94.85l-.05.05h.13l2.15 1.23 3.44 2c.18.1.37.2.41.41A.52.52 0 0 1 63 99Zm25.77.87.79-.88.85-.95a5.39 5.39 0 0 0 1-1.44 2 2 0 0 0-.55-2.48A6.75 6.75 0 0 0 88 92.77a50.43 50.43 0 0 0-8.81-1.48H79v-.21a.34.34 0 0 1 0-.24 26.17 26.17 0 0 1 3.19-5c.82-1 1-1 2-.3l1.18.78c1.4.92 2.8 1.85 4.18 2.79a.56.56 0 0 0 .16.08s.07-.1.12-.17a3.4 3.4 0 0 0 .29-2.72 1.37 1.37 0 0 1 0-.27.19.19 0 0 1 0-.13.29.29 0 0 1 .13-.23l.13-.08.15.11a4.17 4.17 0 0 1 .93.51l.18.12 4.34 2.84L98 90.51a6.15 6.15 0 0 1 1.11.94.78.78 0 0 1 .28.57.84.84 0 0 1-.37.53c-.87.69-1.71 1.43-2.53 2.15l-.94.83-.81.71-1.7 1.47s-.19.15-.19.21a.29.29 0 0 0 .08.14.53.53 0 0 1 .16.45.55.55 0 0 1-.38.35l-1.24.52-.69.3a2.35 2.35 0 0 1-1 .12h-.5Zm1-.47a2 2 0 0 0 .84-.1l.69-.3c.42-.18.84-.36 1.26-.52h.1v-.06a.65.65 0 0 1-.2-.46.84.84 0 0 1 .35-.52c.57-.48 1.13-1 1.69-1.46l.81-.71c.32-.27.63-.55.94-.83.82-.72 1.67-1.47 2.55-2.16.19-.15.2-.21.2-.23s-.12-.18-.16-.23a5.34 5.34 0 0 0-1-.88l-2.14-1.42-4.34-2.84-.18-.12a4.41 4.41 0 0 0-.62-.37 3.77 3.77 0 0 1-.34 3c-.2.28-.39.56-.89.22-1.39-.94-2.78-1.86-4.18-2.79L84 85.9c-.79-.53-.79-.53-1.42.21a26.25 26.25 0 0 0-3 4.76 52.14 52.14 0 0 1 8.62 1.48 7 7 0 0 1 3 1.41 2.41 2.41 0 0 1 .67 3 5.62 5.62 0 0 1-1.11 1.57l-.85.94Zm-11.28-8.75a.61.61 0 0 1-.32-.11l-5.41-3.28-2.3-1.39a.46.46 0 0 1-.12-.12l-.34-.41h.45a18.53 18.53 0 0 1 7.53.67 7.65 7.65 0 0 1 2.21 1.16.52.52 0 0 1 .15.8c-.5.82-1 1.67-1.39 2.39a.61.61 0 0 1-.32.31Zm-.09-.48a.18.18 0 0 0 .08 0v-.1c.41-.72.9-1.58 1.4-2.4a.35.35 0 0 0 .06-.13s0 0-.1-.1a7.15 7.15 0 0 0-2.04-1.04 17.46 17.46 0 0 0-6.8-.7l2 1.19 5.41 3.28Zm11.06-1.65a.64.64 0 0 1-.33-.13L85.6 86l-1.9-1.26a.39.39 0 0 1-.12-.14l-.19-.25-.32.23A9.78 9.78 0 0 0 81 86.86l-.58.77v-.72a6.65 6.65 0 0 1 .37-2.16.78.78 0 0 1 .77-.53h3.17a22.46 22.46 0 0 1 2.47 0 4.73 4.73 0 0 1 1.73.62l.42.21a.55.55 0 0 1 .29.47v.1l.27 1.9a1.08 1.08 0 0 1-.1.58.47.47 0 0 1-.28.32Zm-5.13-3.86 1.51 1L89.38 88h.05a.68.68 0 0 0 .07-.35c-.1-.64-.18-1.27-.27-1.91v-.07c0-.15 0-.16-.05-.16l-.43-.22a4.57 4.57 0 0 0-1.56-.58c-.8-.07-1.59 0-2.44 0Zm-2.76 0c-.16 0-.25.07-.32.25a4.53 4.53 0 0 0-.25 1.28 9.74 9.74 0 0 1 1.36-1.52h-.75ZM85.38 67.54a2.13 2.13 0 0 0-1.43 0c-.32.11-.65.23-1 .31s-.48.1-.6-.17a15.06 15.06 0 0 1-.57-2 .43.43 0 0 1 0-.11c0-.08 0-.08 0 0a2.41 2.41 0 0 1-.11-1c0-.13.13-.54.17-.68a5.36 5.36 0 0 1 2.21-3.06c.21-.16.26-.25.08-.49a4 4 0 0 1-.72-1.52l4.65.16c-.09-.21-.26-.26-.39-.34-1.31-.85-2.61-1.7-3.94-2.53a.53.53 0 0 1-.28-.67q.85-3.68 1.7-7.35a14.26 14.26 0 0 0 .61-3.94A4.37 4.37 0 0 0 84 40.52a14.42 14.42 0 0 1-2.47-2.27 9 9 0 0 1-2.14-3.4c-.12-.39-.23-.45-.62-.26l-12 6a.55.55 0 0 1-.78-.14c-.59-.61-1.2-1.19-1.81-1.78a.79.79 0 0 0-.83-.29c-.32.11-.39.41-.46.7a10.19 10.19 0 0 0-.06 2c0 .8 0 .79-.77 1a26.9 26.9 0 0 0-11.46 7.14c-1.44 1.41-2.28 3.24-3.43 4.85-.16.22 0 .32.12.45L62 71.31a.45.45 0 0 0 .58.16c1.71-.56 3.43-1.09 5.14-1.65a1.16 1.16 0 0 1 .84 0 23.46 23.46 0 0 0 11.21 2 11.23 11.23 0 0 0 4.59-1.38 4 4 0 0 0 1.59-1.55.86.86 0 0 0-.57-1.35Zm-12.92-28.9a.65.65 0 0 1 .56.06 18 18 0 0 1 6.8 4.61 24.58 24.58 0 0 1 4 5.72 1.08 1.08 0 0 1 .08.79c-.41 1.74-.8 3.48-1.2 5.22 0 .08 0 .17-.1.22s-.24-.19-.35-.31a41.8 41.8 0 0 0-8.22-7.08l-.03-.08a2.15 2.15 0 0 1-1.19-.79c-.13.09-.2 0-.28-.11L67 41.4Zm-9.74 32c-.3.1-.38-.09-.51-.24l-5.92-6.8q-3.9-4.47-7.81-8.92l-.48-.53c2 .41 3.93.11 5.84.4a5.12 5.12 0 0 1 2.75 1.26.54.54 0 0 1 .2.55 4.37 4.37 0 0 0 1.28 3.91 2.43 2.43 0 0 0 2.13.73 1.26 1.26 0 0 0 1.24-1.26 2.31 2.31 0 0 0 0-.87c-.06-.19.06-.55-.39-.44s-.52.18-.41.57a.91.91 0 0 1-.27 1.07 1.14 1.14 0 0 1-1.3-.07 3.62 3.62 0 0 1-1.48-3.48 2.71 2.71 0 0 1 2.54-2.19 1 1 0 0 1 1.32.83 4.53 4.53 0 0 1 .19 1.68c0 .16 0 .34.18.4a2 2 0 0 1 1.2 1A12.49 12.49 0 0 1 65 64.91c0 .68-.06 1.36 0 2a1.54 1.54 0 0 0 .72 1.3l1.48.92c-1.58.53-3.03.98-4.48 1.46Zm18.76-1.36a14.75 14.75 0 0 1-3 1 8.72 8.72 0 0 1-5.91-.82 31.94 31.94 0 0 1-3-1.66 10.53 10.53 0 0 1-4.13-5.17c-.85-2-1.37-4.13-2-6.2a31 31 0 0 0-1.25-3.11 11.15 11.15 0 0 0-3.33-4.21A14.13 14.13 0 0 1 57 47.5a3.22 3.22 0 0 1-.62-.93.9.9 0 0 1 .4-1.25 19.93 19.93 0 0 1 5.87-2.55 1.44 1.44 0 0 1 1.07.12C66.3 44.27 69 45.58 71.55 47a46.73 46.73 0 0 1 5.6 3.9A36.14 36.14 0 0 1 82 55.11a1.36 1.36 0 0 1 .44 1.37A5.15 5.15 0 0 0 83 60a.55.55 0 0 1-.17.79 5.43 5.43 0 0 0-1.93 4.69c0 .55-.51.43-.79.75a13.09 13.09 0 0 1-.13-2 2.63 2.63 0 0 1 .5-1.58 2.11 2.11 0 0 0-.25-3.16c-.22-.17 0-.87.31-.91s.33-.2.3-.42a.62.62 0 0 1 .46-.77c.3-.1.48-.36.72-.69a1.46 1.46 0 0 1-1.46-.7c-.36-.46-.74-.91-1.12-1.35a.79.79 0 0 0-1.16-.23 4 4 0 0 0-1.21 1.07 9.9 9.9 0 0 1 1.14-.28.84.84 0 0 1 .79.38c.33.52.69 1 1.07 1.51a.32.32 0 0 1 0 .39c-.09.17-.16.3-.39.29h-1.37c-.46 0-.4.1-.41.41s.14.4.43.39.74 0 1.17 0c-.18.4-.48.75-.43 1.06s.56.37.8.65A1.31 1.31 0 0 1 80 62a4.49 4.49 0 0 0-.7 3.38 25.9 25.9 0 0 0 .36 3c0 .21 0 .41.34.31s.56 0 .45-.43a8.51 8.51 0 0 1-.17-1 .58.58 0 0 1 .49-.67.36.36 0 0 1 .5.29 7.06 7.06 0 0 0 .56 1.4c.22.52.23.72-.35.95Z"/><path class="cls-3" d="m97.89 90.69-6.41-4.2a4.55 4.55 0 0 0-1.1-.61V86.22a3.6 3.6 0 0 1-.31 2.9c-.2.27-.26.38-.59.16-1.77-1.2-3.57-2.38-5.36-3.57-.94-.62-1-.62-1.7.26a26.6 26.6 0 0 0-3.17 5s0 .09 0 .14a50.81 50.81 0 0 1 8.85 1.49 6.87 6.87 0 0 1 2.9 1.33 2.18 2.18 0 0 1 .61 2.72 5.75 5.75 0 0 1-1.07 1.51l-1.28 1.43a4.19 4.19 0 0 0 1.45-.12c.64-.27 1.28-.55 1.93-.81.27-.11.33-.24.14-.45s-.12-.46.13-.67c.84-.71 1.67-1.45 2.5-2.17 1.16-1 2.29-2 3.49-3 .41-.33.32-.5.06-.78a5.79 5.79 0 0 0-1.07-.9Z"/><path class="cls-4" d="m88.74 99.84.79-.88.85-.95a5.39 5.39 0 0 0 1-1.44 2 2 0 0 0-.55-2.48A6.75 6.75 0 0 0 88 92.77a50.43 50.43 0 0 0-8.81-1.48H79v-.21a.34.34 0 0 1 0-.24 26.17 26.17 0 0 1 3.19-5c.82-1 1-1 2-.3l1.18.78c1.4.92 2.8 1.85 4.18 2.79a.56.56 0 0 0 .16.08s.07-.1.12-.17a3.4 3.4 0 0 0 .29-2.72 1.37 1.37 0 0 1 0-.27v-.18l.21-.21h.13a4.1 4.1 0 0 1 1 .52l.18.12 4.34 2.84L98 90.51a6.15 6.15 0 0 1 1.11.94.78.78 0 0 1 .28.57.84.84 0 0 1-.37.53c-.87.69-1.71 1.43-2.53 2.15l-.94.83-.81.71-1.7 1.47s-.19.15-.19.21a.29.29 0 0 0 .08.14.53.53 0 0 1 .16.45.55.55 0 0 1-.38.35l-1.24.52-.69.3a2.35 2.35 0 0 1-1 .12h-.5Zm1-.47a2 2 0 0 0 .84-.1l.72-.27c.42-.18.84-.36 1.26-.52h.1v-.06a.65.65 0 0 1-.2-.46.84.84 0 0 1 .35-.52c.57-.48 1.13-1 1.69-1.46l.81-.71c.32-.27.63-.55.94-.83.82-.72 1.67-1.47 2.55-2.16.19-.15.2-.21.2-.23s-.12-.18-.16-.23a5.34 5.34 0 0 0-1-.88l-2.14-1.42-4.34-2.84-.18-.12a4.41 4.41 0 0 0-.62-.37 3.77 3.77 0 0 1-.34 3c-.2.28-.39.56-.89.22-1.39-.94-2.78-1.86-4.18-2.79L84 85.9c-.79-.53-.79-.53-1.42.21a26.25 26.25 0 0 0-3 4.76 52.14 52.14 0 0 1 8.62 1.48 7 7 0 0 1 3 1.41 2.41 2.41 0 0 1 .67 3 5.62 5.62 0 0 1-1.11 1.57l-.85.94Z"/><path class="cls-3" d="M65.18 99.84a1.51 1.51 0 0 1-1.12-.19c-.38-.14-.75-.31-1.13-.46-.15-.06-.3-.13-.17-.31s0-.4-.21-.53L57 95.16c-.21-.12-.41-.18-.12-.47a47.22 47.22 0 0 1 9.34-7.57 13.79 13.79 0 0 1 2.74-1.24.5.5 0 0 1 .5 0q4 2.48 8.09 4.91l.31.21a29.08 29.08 0 0 0-3.15.08 18.42 18.42 0 0 0-6.38 1.45c-.91.43-1.78.94-2.66 1.43a5.46 5.46 0 0 0-.79.57c-1.81 1.45-1.9 3.1-.27 4.73Z"/><path class="cls-4" d="M64.87 100.11a1.75 1.75 0 0 1-.69-.18l-.2-.08c-.23-.08-.46-.18-.68-.27s-.3-.13-.45-.18-.29-.12-.34-.3a.37.37 0 0 1 .08-.34.26.26 0 0 0 0-.11l-.17-.1-3.47-2-2.2-1.26a.51.51 0 0 1-.32-.35.52.52 0 0 1 .2-.43 47.59 47.59 0 0 1 9.39-7.6 13.64 13.64 0 0 1 2.79-1.27.67.67 0 0 1 .67 0l6.23 3.77 1.86 1.13.16.11.77.53h-.74a28.75 28.75 0 0 0-3.12.07 18.64 18.64 0 0 0-6.31 1.44c-.72.34-1.43.74-2.12 1.13l-.52.29a5.84 5.84 0 0 0-.77.55 2.62 2.62 0 0 0-.24 4.41l.38.36.48.46-.34.11a1.06 1.06 0 0 1-.33.11ZM63 99l.45.19.67.26.22.09a1.82 1.82 0 0 0 .3.11 2.5 2.5 0 0 1-.23-.23 3.43 3.43 0 0 1-1.22-2.6 3.48 3.48 0 0 1 1.5-2.45 5.72 5.72 0 0 1 .83-.59l.51-.29c.7-.39 1.42-.8 2.16-1.14a18.7 18.7 0 0 1 6.46-1.48c.78-.06 1.55-.09 2.4-.09l-1.53-.92-6.22-3.79c-.09-.06-.13 0-.27 0a13.76 13.76 0 0 0-2.74 1.24A47 47 0 0 0 57 94.85l-.05.05h.13l2.15 1.23 3.44 2c.18.1.37.2.41.41A.52.52 0 0 1 63 99Z"/><path class="cls-3" d="M70.42 85.52a18.44 18.44 0 0 1 7.45.67A7.6 7.6 0 0 1 80 87.31c.21.16.24.28.1.51-.48.79-.94 1.59-1.4 2.4-.11.21-.2.28-.43.14q-3.83-2.36-7.69-4.67a1.46 1.46 0 0 1-.16-.17Z"/><path class="cls-4" d="M78.49 90.65a.61.61 0 0 1-.32-.11l-5.41-3.28-2.3-1.39a.46.46 0 0 1-.12-.12l-.34-.41h.45a18.53 18.53 0 0 1 7.53.67 7.65 7.65 0 0 1 2.21 1.16.52.52 0 0 1 .15.8c-.5.82-1 1.67-1.39 2.39a.61.61 0 0 1-.32.31ZM71 85.7l2 1.19 5.41 3.28a.18.18 0 0 0 .08 0v-.1c.41-.72.9-1.58 1.4-2.4a.35.35 0 0 0 .06-.13s0 0-.1-.1a7.15 7.15 0 0 0-2.05-1.04 17.46 17.46 0 0 0-6.8-.7Z"/><path class="cls-3" d="M83.7 84.45c1.21 0 2.38-.08 3.54 0a6.29 6.29 0 0 1 2.07.81c.14.07.15.2.17.33.09.66.18 1.32.28 2a1 1 0 0 1-.11.52c-.09.23-.2.24-.4.1l-5.43-3.61a.76.76 0 0 1-.12-.15Z"/><path class="cls-4" d="M89.46 88.52a.64.64 0 0 1-.33-.13L85.6 86l-1.9-1.26a.39.39 0 0 1-.12-.14l-.31-.41h1.51a22.46 22.46 0 0 1 2.47 0 4.67 4.67 0 0 1 1.73.62c.14.07.28.15.42.21a.55.55 0 0 1 .29.47v.1l.27 1.9a1.08 1.08 0 0 1-.1.58.47.47 0 0 1-.28.32Zm-5.13-3.86 1.51 1L89.38 88h.05a.68.68 0 0 0 .07-.35c-.1-.64-.18-1.27-.27-1.91v-.23l-.44-.22a4.57 4.57 0 0 0-1.56-.58c-.8-.07-1.59 0-2.44 0Z"/><path class="cls-3" d="M82.94 84.45a11.06 11.06 0 0 0-2.26 2.47 6.66 6.66 0 0 1 .37-2.09.53.53 0 0 1 .55-.39c.4.02.8.01 1.34.01Z"/><path class="cls-4" d="M80.43 87.63v-.72a6.76 6.76 0 0 1 .37-2.17.78.78 0 0 1 .77-.52h2l-.54.39A9.78 9.78 0 0 0 81 86.86Zm1.14-3c-.16 0-.25.07-.32.25a4.53 4.53 0 0 0-.25 1.31 9.74 9.74 0 0 1 1.36-1.52h-.75Z"/><path class="cls-3" d="M90.33 85.93v-.09c0-.03 0 0 .06 0Z"/><path class="cls-4" d="m90.36 86.21-.15-.1a.26.26 0 0 1-.13-.23.29.29 0 0 1 .13-.23l.13-.08.34.28-.19.23Zm0-.32.08.13a.17.17 0 0 0 .06-.14.13.13 0 0 0-.06-.13l-.08.12Z"/><path class="cls-3" d="M83 60a5.15 5.15 0 0 1-.58-3.54 1.36 1.36 0 0 0-.42-1.35 36.14 36.14 0 0 0-4.86-4.22 46.73 46.73 0 0 0-5.6-3.9c-2.6-1.41-5.25-2.72-7.87-4.1a1.44 1.44 0 0 0-1.07-.12 19.93 19.93 0 0 0-5.87 2.55.9.9 0 0 0-.4 1.25 3.22 3.22 0 0 0 .62.93 14.13 14.13 0 0 0 1.77 1.6 11.15 11.15 0 0 1 3.33 4.21 31 31 0 0 1 1.25 3.11c.68 2.07 1.2 4.19 2 6.2a10.53 10.53 0 0 0 4.13 5.17 31.94 31.94 0 0 0 3 1.66 8.72 8.72 0 0 0 5.91.82 14.75 14.75 0 0 0 3-1c.58-.28.57-.43.31-.89a7.06 7.06 0 0 1-.56-1.4.36.36 0 0 0-.5-.29.58.58 0 0 0-.49.67 8.51 8.51 0 0 0 .17 1c.11.45-.23.36-.45.43s-.31-.1-.34-.31a25.9 25.9 0 0 1-.36-3A4.49 4.49 0 0 1 80 62a1.31 1.31 0 0 0 0-1.75c-.24-.28-.76-.36-.8-.65s.25-.66.43-1.06h-1.17c-.37 0-.44 0-.43-.39s.09-.43.41-.41.91 0 1.37 0c.23 0 .3-.12.39-.29a.32.32 0 0 0 0-.39c-.38-.49-.74-1-1.07-1.51a.84.84 0 0 0-.79-.38 9.9 9.9 0 0 0-1.14.28 4 4 0 0 1 1.21-1.07.79.79 0 0 1 1.16.23c.38.44.76.89 1.12 1.35a1.46 1.46 0 0 0 1.49.71c-.24.33-.42.59-.72.69a.62.62 0 0 0-.46.77c0 .22 0 .38-.3.42s-.53.74-.31.91a2.11 2.11 0 0 1 .25 3.16 2.63 2.63 0 0 0-.5 1.58 13.09 13.09 0 0 0 .13 2c.28-.32.83-.2.79-.75a5.43 5.43 0 0 1 1.93-4.69A.55.55 0 0 0 83 60Z"/><path class="cls-4" d="M76.65 70.7a9.63 9.63 0 0 1-4.22-1c-1.07-.52-2.1-1.08-3.06-1.67a10.68 10.68 0 0 1-4.22-5.28 39 39 0 0 1-1.38-4.07c-.22-.71-.43-1.43-.67-2.14a29.3 29.3 0 0 0-1.24-3.09 10.84 10.84 0 0 0-3.26-4.13 12.73 12.73 0 0 1-1.8-1.63 3.12 3.12 0 0 1-.66-1 1.11 1.11 0 0 1 .48-1.51 19.83 19.83 0 0 1 5.94-2.58 1.65 1.65 0 0 1 1.22.13l3.13 1.63c1.56.8 3.17 1.63 4.74 2.48a39.71 39.71 0 0 1 4.77 3.26l.86.65A38.09 38.09 0 0 1 82.17 55a1.57 1.57 0 0 1 .49 1.57 5 5 0 0 0 .56 3.39A.74.74 0 0 1 83 61a5.25 5.25 0 0 0-1.86 4.51c0 .5-.3.64-.53.74a.79.79 0 0 0-.31.18l-.31.36-.07-.48a13.71 13.71 0 0 1-.13-2 2.86 2.86 0 0 1 .54-1.71 1.88 1.88 0 0 0-.2-2.86A.65.65 0 0 1 80 59a.78.78 0 0 1 .55-.6h.12a.57.57 0 0 0 0-.15.82.82 0 0 1 .61-1 .77.77 0 0 0 .33-.25 1.81 1.81 0 0 1-1.21-.8c-.38-.48-.79-1-1.12-1.35a.59.59 0 0 0-.89-.18 2.75 2.75 0 0 0-.63.46 1.77 1.77 0 0 1 .46-.07 1 1 0 0 1 1 .47c.29.45.63.93 1.06 1.5a.51.51 0 0 1 .06.62.6.6 0 0 1-.59.41H78.19a.51.51 0 0 0 0 .19.32.32 0 0 0 0 .15.41.41 0 0 0 .18 0h1.51l-.14.3a2.69 2.69 0 0 1-.19.38 1.15 1.15 0 0 0-.21.56c0 .06.16.14.28.21a1.34 1.34 0 0 1 .47.33 1.53 1.53 0 0 1 0 2 4.09 4.09 0 0 0-.66 3.06v.17a26.08 26.08 0 0 0 .35 3 .43.43 0 0 0 0 .11h.33v-.1a4.69 4.69 0 0 1-.14-.82v-.22a.8.8 0 0 1 .63-.91.58.58 0 0 1 .78.44 6.65 6.65 0 0 0 .62 1.32.91.91 0 0 1 .18.7c-.07.21-.28.35-.59.49a15.16 15.16 0 0 1-3.08 1.07 8.18 8.18 0 0 1-1.86.21ZM63 42.93a1.48 1.48 0 0 0-.35 0 19.14 19.14 0 0 0-5.81 2.53.69.69 0 0 0-.32 1 2.89 2.89 0 0 0 .58.86 13 13 0 0 0 1.74 1.57 11.21 11.21 0 0 1 3.39 4.29 27.57 27.57 0 0 1 1.26 3.15c.24.71.46 1.44.67 2.14a40.09 40.09 0 0 0 1.38 4 10.26 10.26 0 0 0 4 5.07c1 .58 2 1.13 3 1.64a8.54 8.54 0 0 0 5.78.81 14.38 14.38 0 0 0 3-1c.29-.14.35-.21.36-.24s-.1-.27-.14-.35A7.3 7.3 0 0 1 81 67c0-.17-.11-.18-.23-.14-.34.1-.35.29-.33.43v.23a4.46 4.46 0 0 0 .13.76.55.55 0 0 1 0 .46.57.57 0 0 1-.43.21L80 69a.44.44 0 0 1-.41 0 .54.54 0 0 1-.21-.42 26.17 26.17 0 0 1-.38-3.17v-.17a4.48 4.48 0 0 1 .76-3.36 1.09 1.09 0 0 0-.05-1.47 1.07 1.07 0 0 0-.33-.23c-.23-.12-.48-.25-.52-.53a1.37 1.37 0 0 1 .27-.83h-.76a.62.62 0 0 1-.51-.14.57.57 0 0 1-.15-.47.65.65 0 0 1 .16-.5.63.63 0 0 1 .48-.13H79.71c.22 0 .1 0 .18-.17s0-.08 0-.15c-.44-.58-.78-1.07-1.08-1.53a.57.57 0 0 0-.59-.28 2 2 0 0 0-.56.13 3.77 3.77 0 0 1-.56.15l-.58.09.38-.45a4.51 4.51 0 0 1 1.28-1.13 1 1 0 0 1 1.43.29c.33.39.74.87 1.12 1.36a1.28 1.28 0 0 0 1.27.61h.21a1.16 1.16 0 0 0-.39-1.17A36.54 36.54 0 0 0 77 51.06l-.86-.65a37.39 37.39 0 0 0-4.72-3.22c-1.56-.85-3.17-1.68-4.72-2.48-1-.54-2.1-1.08-3.14-1.63a1.18 1.18 0 0 0-.56-.15Zm19.13 14a1.57 1.57 0 0 1-.75.66c-.27.09-.35.22-.31.55a.5.5 0 0 1-.49.65s-.09.06-.15.19a.55.55 0 0 0 0 .35 2.31 2.31 0 0 1 .28 3.45 2.33 2.33 0 0 0-.45 1.46 11.47 11.47 0 0 0 .08 1.62l.13-.05c.24-.1.28-.14.27-.31a5.65 5.65 0 0 1 2-4.86c.24-.21.25-.28.12-.53a5.59 5.59 0 0 1-.71-3.17Z"/><path class="cls-3" d="M67.15 69.18c-1.53.48-3 .93-4.43 1.41-.3.1-.38-.09-.51-.24l-5.92-6.75q-3.9-4.47-7.81-8.92l-.48-.53c2 .41 3.93.11 5.84.4a5.12 5.12 0 0 1 2.75 1.26.54.54 0 0 1 .2.55 4.37 4.37 0 0 0 1.28 3.91 2.43 2.43 0 0 0 2.13.73 1.26 1.26 0 0 0 1.24-1.26 2.31 2.31 0 0 0 0-.87c-.06-.19.06-.55-.39-.44s-.52.18-.41.57a.91.91 0 0 1-.27 1.07 1.14 1.14 0 0 1-1.3-.07 3.62 3.62 0 0 1-1.48-3.48 2.71 2.71 0 0 1 2.54-2.19 1 1 0 0 1 1.32.83 4.53 4.53 0 0 1 .19 1.68c0 .16 0 .34.18.4a2 2 0 0 1 1.2 1A12.49 12.49 0 0 1 65 64.91c0 .68-.06 1.36 0 2a1.54 1.54 0 0 0 .72 1.3Z"/><path class="cls-4" d="M62.57 70.84a.59.59 0 0 1-.47-.28l-.05-.06-4.35-5-9.39-10.68-.26-.32-.57-.69.6.13a16.61 16.61 0 0 0 3.2.24 19.51 19.51 0 0 1 2.63.15 5.41 5.41 0 0 1 2.86 1.32.75.75 0 0 1 .27.75 4.12 4.12 0 0 0 1.23 3.72 2.18 2.18 0 0 0 1.91.68 1 1 0 0 0 1-1 1.87 1.87 0 0 0 0-.79.83.83 0 0 1 0-.22.31.31 0 0 1 0-.09h-.08c-.06 0-.24.06-.27.11s0 .06 0 .2a1.1 1.1 0 0 1-.36 1.3 1.36 1.36 0 0 1-1.47-.1 3.8 3.8 0 0 1-1.59-3.71 2.91 2.91 0 0 1 2.73-2.36 1.24 1.24 0 0 1 1.55 1 5 5 0 0 1 .2 1.77v.19a2.06 2.06 0 0 1 1.34 1.12 12.73 12.73 0 0 1 2 6.75v.28a17 17 0 0 0 0 1.75 1.28 1.28 0 0 0 .62 1.13l1 .6.9.57-1.75.47c-1.1.34-2.17.68-3.23 1a.64.64 0 0 1-.2.07Zm-14-16.37.06.06L58 65.25l4.35 5 .06.08c.1.12.1.13.21.1 1.07-.36 2.14-.69 3.24-1l.74-.23-.1-.07-1-.6a1.78 1.78 0 0 1-.77-1.53v-2.1a12.4 12.4 0 0 0-1.92-6.52 1.74 1.74 0 0 0-1.06-.91.47.47 0 0 1-.35-.55v-.06a4.72 4.72 0 0 0-.18-1.61c-.22-.62-.45-.76-1.09-.68a2.47 2.47 0 0 0-2.35 2 3.41 3.41 0 0 0 1.37 3.25c.44.24.75.26 1 .08s.29-.44.18-.83a.68.68 0 0 1 0-.53.83.83 0 0 1 .54-.31.45.45 0 0 1 .63.47s0 .09 0 .11a2.58 2.58 0 0 1 .06 1 1.49 1.49 0 0 1-1.44 1.46 2.67 2.67 0 0 1-2.12-.85 4.59 4.59 0 0 1-1.35-4.1.32.32 0 0 0-.13-.35 5 5 0 0 0-2.64-1.21 19.64 19.64 0 0 0-2.57-.14 20.69 20.69 0 0 1-2.73-.15Z"/><path class="cls-3" d="M83.86 49a24.58 24.58 0 0 0-4-5.72A18 18 0 0 0 73 38.7a.65.65 0 0 0-.56-.06L67 41.4l5.57 5.45a5.55 5.55 0 0 0 .89.69l.31.19.24.06.11.08A41.8 41.8 0 0 1 82.29 55c.11.12.17.28.35.31s.09-.14.1-.22c.4-1.74.79-3.48 1.2-5.22a1.08 1.08 0 0 0-.08-.87Z"/><path class="cls-4" d="M82.68 55.49h-.07a.64.64 0 0 1-.42-.29l-.06-.08A41.56 41.56 0 0 0 74 48.05l-.13-.05a.85.85 0 0 1-.31-.11l-.25-.16a4.75 4.75 0 0 1-.93-.72l-4.88-4.77-.92-.9 1.59-.79 4.19-2.1a.8.8 0 0 1 .67 0h.06A18 18 0 0 1 80 43.16a24.85 24.85 0 0 1 4.07 5.78 1.25 1.25 0 0 1 .11.93c-.31 1.29-.6 2.59-.9 3.88L83 55.09a.45.45 0 0 1-.22.36Zm-8.46-7.79a41.94 41.94 0 0 1 8.23 7.11.52.52 0 0 1 .1.11l.29-1.26c.29-1.3.59-2.6.89-3.89a.84.84 0 0 0-.07-.64 24.36 24.36 0 0 0-4-5.67 17.68 17.68 0 0 0-6.72-4.56h-.07c-.16-.06-.22-.08-.31 0l-4.2 2.1-1 .52.48.47c1.65 1.61 3.26 3.19 4.88 4.76a4.61 4.61 0 0 0 .83.65l.26.16.46.14Z"/></g><g id="_6oTy15.tif-2" data-name="6oTy15.tif"><path class="cls-4" d="M93.78 76.66a1.45 1.45 0 0 0 .3 0 .65.65 0 0 1 0-.28v-.14a.69.69 0 0 1 0-.2.77.77 0 0 1 0-.3 6.87 6.87 0 0 1 0-1 .69.69 0 0 1 0-.47.74.74 0 0 1 0-.39 1.13 1.13 0 0 1 0-.18c-.15 0-.21 0-.17-.22a13.52 13.52 0 0 0 .15-3 24.58 24.58 0 0 1 0-3.74c.13-1.13.27-2.26.38-3.39a4.85 4.85 0 0 0 0-1.86.54.54 0 0 0-.78-.42 1.3 1.3 0 0 1-1-.07c-.29-.11-.57-.25-.86-.37a1.25 1.25 0 0 0-1.78.57 2.75 2.75 0 0 0-.34 1.56 1.56 1.56 0 0 1-.39 1.24 2.68 2.68 0 0 0-.69 2.91 14.52 14.52 0 0 0 1.4 3.3A12.94 12.94 0 0 1 91.23 73c.11.47.11.48-.33.45a5.75 5.75 0 0 1 0 1.55 6 6 0 0 1-.24 3.52 5.77 5.77 0 0 1 .7.48 6.19 6.19 0 0 1 .88-.06 7.62 7.62 0 0 1 .85 0c.25 0 .75-.09 1-.09 0-.11 0-5.07-.08-5.15a22.23 22.23 0 0 1-.3 2.81h-2.07c-.28 0-.32-.1-.32-.34 0-1.31-.22-.43-.23-1.75 0-.26.08-.32.34-.31h2c.27 0 .37.06.36.34-.03.77-.01 1.49-.01 2.21Zm-.44-10.89a26.22 26.22 0 0 0-.07 4.77 14.82 14.82 0 0 1-.09 2.46c0 .23-.12.3-.36.3-.76 0-.76 0-1-.69a14.24 14.24 0 0 0-1.2-2.71 14.16 14.16 0 0 1-1.46-3.22 2.2 2.2 0 0 1 .55-2.45 1.67 1.67 0 0 0 .55-1.23 9.79 9.79 0 0 1 .07-1.08c.1-.75.62-1 1.32-.71a3 3 0 0 0 1.84.43c.19 0 .19.07.19.18v.63a30.49 30.49 0 0 1-.34 3.32Z"/><path class="cls-4" d="m91.29 79.22-.07-.06a3.93 3.93 0 0 0-.67-.45l-.17-.1.07-.18a5.76 5.76 0 0 0 .24-3.43 5.72 5.72 0 0 0 0-1.49v-.27H91.1v-.19a11.51 11.51 0 0 0-1.13-2.6l-.3-.56a12.44 12.44 0 0 1-1.3-3 2.93 2.93 0 0 1 .63-3.18 1.3 1.3 0 0 0 .32-1.07 3 3 0 0 1 .42-1.64 1.46 1.46 0 0 1 2-.65l.45.19c.13.06.27.13.41.18a1.15 1.15 0 0 0 .81.06.83.83 0 0 1 .66 0 .87.87 0 0 1 .39.55 5.29 5.29 0 0 1 0 1.94c-.11 1.11-.25 2.23-.38 3.32v.07a18 18 0 0 0 0 2.75v1a13.55 13.55 0 0 1-.15 3h.15v.2a.71.71 0 0 0 0 .12v.18a27.08 27.08 0 0 1 .1 2.87V79.16h-.2c-.25 0-.72.07-1 .1h-.08a5.92 5.92 0 0 0-1.68 0Zm-.36-.8c.16.1.32.21.49.34a6.65 6.65 0 0 1 1.67 0l.8-.08v-1.81h-.33v-.11h-1.9a.59.59 0 0 1-.39-.1 6.47 6.47 0 0 1-.34 1.76Zm.63-2.08h2V74.38H91.32a.55.55 0 0 0 0 .09c0 .6.06.7.1.77s.14.32.14 1v.11Zm1.9-2.4a.6.6 0 0 1 .32.07V74a.53.53 0 0 1 0-.13v-.07a.51.51 0 0 1-.13-.09.43.43 0 0 1-.06-.37 13.68 13.68 0 0 0 .14-2.94v-.94a16.73 16.73 0 0 1 0-2.83v-.07c.13-1.09.26-2.21.38-3.31a4.82 4.82 0 0 0 0-1.78c0-.15-.1-.25-.18-.29a.44.44 0 0 0-.32 0 1.51 1.51 0 0 1-1.1-.06l-.43-.19-.44-.19a1 1 0 0 0-1.5.49 2.5 2.5 0 0 0-.32 1.44 1.68 1.68 0 0 1-.46 1.4 2.47 2.47 0 0 0-.62 2.7 11.72 11.72 0 0 0 1.26 2.9l.3.57a12 12 0 0 1 1.16 2.7c.07.29.12.47 0 .61a.43.43 0 0 1-.29.12v.3a.67.67 0 0 1 .28 0h2Zm-.82-.39c-.69 0-.78-.11-1-.85a13 13 0 0 0-1.18-2.7l-.23-.43A13.25 13.25 0 0 1 89 66.76a2.42 2.42 0 0 1 .63-2.66A1.48 1.48 0 0 0 90 63v-.13c0-.32 0-.65.06-1a1.19 1.19 0 0 1 .54-.91 1.21 1.21 0 0 1 1.09 0l.21.09a2.3 2.3 0 0 0 1.5.32.38.38 0 0 1 .32.06.4.4 0 0 1 .13.33v.64a30.32 30.32 0 0 1-.35 3.33 21.32 21.32 0 0 0-.09 3.91v.83a14.4 14.4 0 0 1-.1 2.52.51.51 0 0 1-.56.49Zm-1.51-12.23a.6.6 0 0 0-.27.06.76.76 0 0 0-.31.59 7.12 7.12 0 0 0-.07.92V63a1.89 1.89 0 0 1-.58 1.4 2 2 0 0 0-.49 2.23 12 12 0 0 0 1.21 2.74l.23.43a14.46 14.46 0 0 1 1.22 2.75c.16.54.15.54.72.53h.15a.39.39 0 0 0 0-.1 13.56 13.56 0 0 0 .09-2.45v-.83a21.25 21.25 0 0 1 .1-4 29.51 29.51 0 0 0 .34-3.28V61.85a2.93 2.93 0 0 1-1.69-.37l-.21-.09a1 1 0 0 0-.44-.07Z"/><path class="cls-3" d="M93.78 75.77v-1.39c0-.19-.07-.23-.29-.22h-1.56c-.21 0-.28 0-.27.2v2.55c0 .16 0 .23.25.22h1.64c.09 0 .22 0 .24-.09 0-.42-.01-.85-.01-1.27Z"/><path class="cls-4" d="M91.89 77.35a.5.5 0 0 1-.34-.11.45.45 0 0 1-.11-.33v-2.55a.43.43 0 0 1 .11-.31.51.51 0 0 1 .38-.11h1.56a.53.53 0 0 1 .4.12.41.41 0 0 1 .11.32V77a.34.34 0 0 1-.42.31h-1.7Zm0-.44h1.66v-2.54h-1.67c0 .78.01 1.63 0 2.54Z"/><path class="cls-3" d="M93.68 62.47v-.63c0-.21 0-.22-.19-.18a3 3 0 0 1-1.84-.43c-.7-.31-1.22 0-1.32.71a9.79 9.79 0 0 0-.07 1.06 1.67 1.67 0 0 1-.51 1.24 2.2 2.2 0 0 0-.55 2.45 14.16 14.16 0 0 0 1.46 3.22 14.24 14.24 0 0 1 1.2 2.71c.2.71.2.71 1 .69.24 0 .32-.07.36-.3a14.82 14.82 0 0 0 .09-2.49 26.22 26.22 0 0 1 .07-4.77 30.49 30.49 0 0 0 .3-3.28Z"/><path class="cls-4" d="M92.64 73.55c-.69 0-.78-.11-1-.85a13 13 0 0 0-1.18-2.7l-.23-.43A13 13 0 0 1 89 66.76a2.42 2.42 0 0 1 .63-2.66A1.48 1.48 0 0 0 90 63v-.13c0-.32 0-.65.06-1a1.19 1.19 0 0 1 .54-.91 1.21 1.21 0 0 1 1.09 0l.21.09a2.3 2.3 0 0 0 1.5.32.38.38 0 0 1 .32.06.4.4 0 0 1 .13.33v.65a30.41 30.41 0 0 1-.35 3.32 21.32 21.32 0 0 0-.09 3.91v.83a14.4 14.4 0 0 1-.1 2.52.51.51 0 0 1-.56.49Zm-1.51-12.23a.6.6 0 0 0-.27.06.76.76 0 0 0-.31.59 7.12 7.12 0 0 0-.07.92V63a1.89 1.89 0 0 1-.58 1.4 2 2 0 0 0-.49 2.23 12 12 0 0 0 1.21 2.74l.23.43a14.46 14.46 0 0 1 1.22 2.75c.16.54.16.55.72.53h.15a.39.39 0 0 0 0-.1 13.56 13.56 0 0 0 .09-2.45v-.83a21.25 21.25 0 0 1 .1-4 29.28 29.28 0 0 0 .34-3.28V61.85a2.93 2.93 0 0 1-1.69-.37l-.21-.09a1 1 0 0 0-.44-.07Z"/></g><path class="cls-5" d="M106 72.23a.47.47 0 0 1-.58.4.45.45 0 0 1-.37-.58.43.43 0 0 1 .54-.36.46.46 0 0 1 .41.54Z"/><path class="cls-4" d="M105.57 72.86h-.16a.75.75 0 0 1-.46-.3.68.68 0 0 1-.08-.55.64.64 0 0 1 .78-.52.66.66 0 0 1 .59.76.69.69 0 0 1-.67.61Zm-.06-1c-.12 0-.18.06-.21.2a.23.23 0 0 0 0 .21.25.25 0 0 0 .18.11c.11 0 .24 0 .31-.23s-.08-.26-.23-.28Z"/><path class="cls-5" d="M105.31 73.13a.46.46 0 0 1 .42.56.45.45 0 0 1-.57.39.43.43 0 0 1-.37-.53.44.44 0 0 1 .52-.42Z"/><path class="cls-4" d="M105.28 74.31h-.16a.66.66 0 0 1-.55-.78.68.68 0 0 1 .76-.61.66.66 0 0 1 .58.81.67.67 0 0 1-.28.47.63.63 0 0 1-.35.11Zm0-1c-.15 0-.22.07-.25.23a.23.23 0 0 0 .2.29.26.26 0 0 0 .21 0 .24.24 0 0 0 .1-.18c0-.15 0-.26-.23-.31Z"/><path class="cls-5" d="M105.44 75.18a.47.47 0 0 1-.59.36.44.44 0 0 1-.35-.55.44.44 0 0 1 .56-.39.47.47 0 0 1 .38.58Z"/><path class="cls-4" d="M105 75.77h-.2a.66.66 0 0 1-.51-.8.75.75 0 0 1 .29-.48.68.68 0 0 1 .53-.09.68.68 0 0 1 .55.82.67.67 0 0 1-.66.55Zm0-1a.24.24 0 0 0-.12 0 .29.29 0 0 0-.11.2.22.22 0 0 0 .19.29c.14 0 .24 0 .32-.19s-.09-.3-.2-.32Z"/><path class="cls-5" d="M95.69 75a.46.46 0 0 1-.48.51.44.44 0 0 1-.47-.49.42.42 0 0 1 .45-.46.45.45 0 0 1 .5.44Z"/><path class="cls-4" d="M95.21 75.76a.69.69 0 0 1-.51-.2.67.67 0 0 1-.18-.52.64.64 0 0 1 .66-.67.66.66 0 0 1 .73.63.68.68 0 0 1-.7.76Zm0-1a.23.23 0 0 0-.25.25.3.3 0 0 0 .06.2.27.27 0 0 0 .2.07c.12 0 .24 0 .26-.28s-.13-.2-.26-.2Z"/><path class="cls-5" d="M95.17 76.05a.47.47 0 0 1 .52.48.45.45 0 0 1-.48.49.44.44 0 0 1-.47-.45.45.45 0 0 1 .43-.52Z"/><path class="cls-4" d="M95.2 77.24a.65.65 0 0 1-.68-.66.66.66 0 0 1 .62-.74.66.66 0 0 1 .72.68.67.67 0 0 1-.18.52.69.69 0 0 1-.51.2Zm0-1c-.17 0-.23.11-.23.29a.23.23 0 0 0 .25.24.33.33 0 0 0 .21-.07.3.3 0 0 0 .06-.2c-.03-.1-.06-.22-.31-.23Z"/><path class="cls-5" d="M95.69 78a.47.47 0 0 1-.51.47.43.43 0 0 1-.44-.47.44.44 0 0 1 .47-.5.47.47 0 0 1 .48.5Z"/><path class="cls-4" d="M95.22 78.73a.63.63 0 0 1-.65-.68.67.67 0 0 1 .19-.52.65.65 0 0 1 .5-.19.67.67 0 0 1 .7.69.68.68 0 0 1-.74.7Zm0-1a.24.24 0 0 0-.19.07.26.26 0 0 0-.03.2c0 .18.08.25.24.26s.24 0 .28-.26-.19-.24-.31-.24Z"/><path class="cls-2" d="m42 73.05.4 1.72c-.1 0-.2.09-.3.12-1.31.42-2.62.86-3.94 1.25a1.71 1.71 0 0 0-1.35 1.66c-.05.9 0 1.8 0 2.7.07 2.3.17 4.61.23 6.91a1.56 1.56 0 0 1-1.22 1.8 5.79 5.79 0 0 1-3.76.33 2.16 2.16 0 0 1-1.63-2.72q.88-4 1.78-8a5 5 0 0 1 3.77-4l5.51-1.61ZM86.38 63.52l-1.19-.66c.62-.2 9.46-2.72 10.07-2.92l5.81-1.88c.76-.25 1.38.19 1.31.92a.92.92 0 0 1-.73.81l-6 1.9c-.49.16-5.46 1.49-7.61 2.12a2.27 2.27 0 0 1-1.66-.29ZM43 74.4l-.38-1.48c.4.34.79.16 1.18 0 4.84-1.32 9.67-2.62 14.5-4 .39-.1.65-.08.87.25a4 4 0 0 0 .36.38l-.42.12q-7.74 2.1-15.49 4.2a2.24 2.24 0 0 0-.62.53Z"/><g id="_6oTy15.tif-3" data-name="6oTy15.tif"><path class="cls-4" d="M93.61 60.31a1.05 1.05 0 0 1 .55 1.12v.31a5.62 5.62 0 0 1 .4 1.13 2.61 2.61 0 0 0 .22.27 17.52 17.52 0 0 0 1.48 1.37 7.67 7.67 0 0 0 3.37 1.72 2.9 2.9 0 0 1 2.61 3.1c-.41-.14-.52 0-.56.37-.17 1.52-.38 3-.56 4.55 0 .22-.26.53.24.63.08 0 0 .16 0 .24a6.26 6.26 0 0 1-1.24 2.6 2.49 2.49 0 0 1-1.11.79 18.54 18.54 0 0 1-5 .89c0 .7 0 1.4-.06 2.1a36.33 36.33 0 0 1 8.67-.68c.44 0 .61 0 .69-.49a49.88 49.88 0 0 1 .85-5.39 32.47 32.47 0 0 0 .69-5c0-.1.05-.25-.11-.24-.65 0-.48-.39-.44-.69a8.22 8.22 0 0 0-1.51-6.13c-.92-1.28-1.69-2.63-2.48-4a10.93 10.93 0 0 0-.7-1.07 1.67 1.67 0 0 0-2.15-.65c-1.05.36-2.07.77-3.1 1.17a4.34 4.34 0 0 0-.71.37c-.92.56-.94 1.01-.04 1.61Zm10.24 10.94-.13 1c-.08.61-.16 1.21-.23 1.82 0 .22-.11.28-.36.26-1.22-.11-1.22-.1-1.08-1.18.11-.93.24-1.85.34-2.77 0-.28.13-.36.45-.32 1.16.19 1.16.17 1.01 1.19ZM94 59.28a6.47 6.47 0 0 1 1.28-.59c.8-.3 1.6-.61 2.41-.88a.89.89 0 0 1 1.24.37 10.57 10.57 0 0 1 .64 1c.81 1.37 1.6 2.74 2.53 4a7.42 7.42 0 0 1 1.42 5.32l-.09.7c0 .09 0 .21-.19.2s-.14-.1-.16-.19c0-.25-.11-.49-.16-.73a3.51 3.51 0 0 0-3.13-3 5.94 5.94 0 0 1-2.89-1.43c-.5-.42-1-.85-1.46-1.32a1.5 1.5 0 0 1-.5-1.33 1.54 1.54 0 0 0-.92-1.7c-.33-.13-.26-.26-.02-.42Z"/><path class="cls-4" d="M93.7 81.77v-.28l.06-2.1v-.2H94a18.35 18.35 0 0 0 5-.87 2.43 2.43 0 0 0 1-.73 6.06 6.06 0 0 0 1.19-2.52.5.5 0 0 1-.27-.21.58.58 0 0 1 0-.5v-.11c.08-.71.17-1.42.26-2.13s.2-1.62.29-2.42a.74.74 0 0 1 .26-.55.48.48 0 0 1 .3-.07 2.68 2.68 0 0 0-2.44-2.62 7.64 7.64 0 0 1-3.46-1.77 15.12 15.12 0 0 1-1.5-1.38 2.39 2.39 0 0 1-.21-.26l-.06-.12a5.85 5.85 0 0 0-.36-1.1v-.14a2.53 2.53 0 0 1 0-.28.86.86 0 0 0-.46-.92c-.33-.22-.77-.56-.77-1s.45-.78.79-1a4.19 4.19 0 0 1 .74-.39l.46-.18c.86-.34 1.76-.69 2.65-1a1.88 1.88 0 0 1 2.39.73 10.65 10.65 0 0 1 .72 1.09l.34.58c.66 1.13 1.35 2.29 2.13 3.37a8.56 8.56 0 0 1 1.5 6.31v.39c0 .03 0 .05.25.05a.31.31 0 0 1 .27.11.4.4 0 0 1 .07.35c-.07.53-.11 1-.16 1.56a18.58 18.58 0 0 1-.54 3.55 19 19 0 0 0-.57 3.3c-.07.68-.15 1.38-.28 2.06s-.4.69-.91.68a35.79 35.79 0 0 0-8.61.67Zm.49-2.16v1.62a35.7 35.7 0 0 1 8.44-.62c.38 0 .42 0 .48-.32.12-.68.19-1.37.27-2a19 19 0 0 1 .58-3.37 18.29 18.29 0 0 0 .53-3.47c0-.51.09-1 .15-1.55a.63.63 0 0 1-.48-.19.73.73 0 0 1-.09-.62.5.5 0 0 0 0-.12 7.92 7.92 0 0 0-1.47-6c-.79-1.1-1.48-2.27-2.14-3.41l-.35-.58a10.13 10.13 0 0 0-.68-1 1.47 1.47 0 0 0-1.9-.58c-.89.31-1.78.66-2.64 1l-.46.18a3.47 3.47 0 0 0-.67.36c-.38.24-.58.45-.58.62s.19.39.57.64a1.28 1.28 0 0 1 .65 1.33.74.74 0 0 0 0 .21 6.73 6.73 0 0 1 .38 1.09 2.38 2.38 0 0 0 .18.22 17 17 0 0 0 1.46 1.35 7.38 7.38 0 0 0 3.25 1.6 3.12 3.12 0 0 1 2.79 3.31v.3l-.28-.1h-.21l-.06.23c-.09.81-.2 1.61-.3 2.42s-.18 1.42-.26 2.13a1.62 1.62 0 0 1 0 .19.48.48 0 0 0 0 .15h.23l.09.1a.5.5 0 0 1 0 .36 6.42 6.42 0 0 1-1.29 2.72 2.72 2.72 0 0 1-1.22.86 18.11 18.11 0 0 1-4.97.94Zm7.12-4.52Zm1.91-.5h-.11c-.71-.06-1-.09-1.21-.32s-.14-.51-.07-1.1l.1-.75c.08-.67.17-1.34.24-2a.6.6 0 0 1 .19-.42.66.66 0 0 1 .51-.09c.64.08.95.12 1.12.32s.15.5.08 1.07l-.2 1.54c-.06.44-.11.87-.16 1.31a.44.44 0 0 1-.49.44Zm-.59-4.27a.69.69 0 0 0 0 .12c-.08.68-.16 1.35-.25 2l-.1.75a1.67 1.67 0 0 0 0 .78 2.38 2.38 0 0 0 .88.16h.15a.26.26 0 0 1 0-.07c0-.44.1-.87.16-1.31l.19-1.55h.22-.22a1.63 1.63 0 0 0 0-.72 2.05 2.05 0 0 0-.8-.17.55.55 0 0 0-.23.01Zm.65-.65a.39.39 0 0 1-.35-.36l-.09-.37c0-.12-.05-.24-.07-.36a3.3 3.3 0 0 0-3-2.83 6.11 6.11 0 0 1-3-1.47c-.48-.41-1-.85-1.48-1.33a1.75 1.75 0 0 1-.55-1.52 1.34 1.34 0 0 0-.81-1.48.53.53 0 0 1-.35-.41c0-.23.21-.37.31-.43a6.92 6.92 0 0 1 1.32-.62l.22-.08c.71-.27 1.46-.55 2.2-.8a1.1 1.1 0 0 1 1.49.45c.25.35.47.71.65 1l.21.35c.72 1.22 1.46 2.49 2.31 3.68a7.59 7.59 0 0 1 1.45 5.48v.19c0 .17 0 .34-.07.51s-.25.4-.39.4Zm-9.22-10.16h.07a1.79 1.79 0 0 1 1 1.93 1.3 1.3 0 0 0 .43 1.15c.47.47 1 .91 1.45 1.3a5.6 5.6 0 0 0 2.78 1.38 3.73 3.73 0 0 1 3.31 3.17c0 .12 0 .24.08.36v.14a2 2 0 0 1 0-.26v-.19a7.23 7.23 0 0 0-1.37-5.18c-.86-1.2-1.61-2.48-2.34-3.71l-.2-.35c-.18-.3-.39-.65-.63-1s-.48-.47-1-.3c-.73.25-1.47.53-2.19.8l-.21.08a7.43 7.43 0 0 0-1.24.57Z"/><path class="cls-3" d="M94 59.75a1.54 1.54 0 0 1 .92 1.7 1.5 1.5 0 0 0 .5 1.33c.46.47 1 .9 1.46 1.32a5.94 5.94 0 0 0 2.89 1.43 3.51 3.51 0 0 1 3.13 3c0 .24.11.48.16.73 0 .09 0 .17.16.19s.17-.11.19-.2l.09-.7a7.42 7.42 0 0 0-1.42-5.32c-.93-1.31-1.72-2.68-2.53-4a10.57 10.57 0 0 0-.64-1 .89.89 0 0 0-1.24-.37c-.81.27-1.61.58-2.41.88a6.47 6.47 0 0 0-1.28.59c-.22.11-.29.24.02.42Z"/><path class="cls-4" d="M103.28 69.67a.39.39 0 0 1-.35-.36l-.09-.37c0-.12-.05-.24-.07-.36a3.3 3.3 0 0 0-3-2.83 6.11 6.11 0 0 1-3-1.47c-.48-.41-1-.85-1.48-1.33a1.75 1.75 0 0 1-.55-1.52 1.34 1.34 0 0 0-.81-1.48.53.53 0 0 1-.35-.41c0-.23.21-.37.31-.43a6.92 6.92 0 0 1 1.32-.62l.22-.08c.71-.27 1.46-.55 2.2-.8a1.1 1.1 0 0 1 1.49.45c.25.35.47.71.65 1l.21.35c.72 1.22 1.46 2.49 2.31 3.68a7.59 7.59 0 0 1 1.45 5.48v.19c0 .17 0 .34-.07.51s-.25.4-.39.4Zm-9.15-10.12a1.79 1.79 0 0 1 1 1.93 1.3 1.3 0 0 0 .43 1.15c.47.47 1 .91 1.45 1.3a5.6 5.6 0 0 0 2.78 1.38 3.73 3.73 0 0 1 3.31 3.17c0 .12 0 .24.08.36v.14a2 2 0 0 1 0-.26v-.19a7.23 7.23 0 0 0-1.37-5.18c-.86-1.2-1.61-2.48-2.34-3.71l-.2-.35c-.18-.3-.39-.65-.63-1s-.48-.47-1-.3c-.73.25-1.47.53-2.19.8l-.21.08a7.43 7.43 0 0 0-1.24.57h-.07.07Z"/><path class="cls-3" d="M103.13 74.37c.25 0 .34 0 .36-.26.07-.61.15-1.21.23-1.82l.13-1c.13-1 .13-1-1-1.15-.32 0-.42 0-.45.32-.1.92-.23 1.84-.34 2.77-.15 1.04-.15 1.03 1.07 1.14Z"/><path class="cls-4" d="M103.22 74.59h-.11v-.21.21c-.68-.06-1-.09-1.18-.32s-.14-.51-.07-1.1l.1-.75c.08-.67.17-1.34.24-2a.6.6 0 0 1 .19-.42.66.66 0 0 1 .51-.09c.64.08.95.12 1.12.32s.15.5.08 1.07l-.2 1.54c-.06.44-.11.87-.16 1.31a.44.44 0 0 1-.52.44Zm-.59-4.27a.69.69 0 0 0 0 .12c-.08.68-.16 1.35-.25 2l-.1.75a1.67 1.67 0 0 0 0 .78 2.38 2.38 0 0 0 .88.16h.15a.26.26 0 0 1 0-.07c0-.44.1-.87.16-1.31l.19-1.55a1.63 1.63 0 0 0 0-.72 2.05 2.05 0 0 0-.8-.17.55.55 0 0 0-.23.01Z"/></g><path class="cls-2" d="M85.64 63.62a1.16 1.16 0 0 0-.93-.07c-1 .26-1.65.52-2.62.78a1.07 1.07 0 0 0 0 1c1.17-.32 2.21-.7 3.38-1 .13 0 .86-.18 1-.23a3.59 3.59 0 0 0-.83-.48Z"/><path class="cls-6" d="m19.2 64.16-1.95-.58.29-1-5.82-1.75-.29 1-1.95-.58 1.12-3.74 2 .58-.25.83 1.94.58.58-1.94-1.99-.56-.25.83-1.94-.58 1.12-3.75 1.94.58-.29 1 5.83 1.74.29-1 1.94.58-1.12 3.73-1.94-.58.25-.83-1.95-.58-.58 1.94 1.95.58.24-.83 1.95.58ZM22.17 54.7l-1.83-.88.44-.91-6.43-5.34.88-1.83 8.18 1.68.44-.91 1.83.88L24 50.91 22.16 50l.38-.79-1-.21-.66 1.37.81.67.31-.74 1.83.87Zm-3.73-6.29.81.67.22-.46ZM26.61 45.85 25 44.69l.57-.83-5-3.47-.58.83-1.66-1.15 2.31-3.33 1.66 1.15-.57.84 5 3.47 1.16-1.67L27 40l1.15-1.66L30.66 40ZM31.79 38.64l-1.46-1.41.67-.73-4.37-4.24L26 33l-1.46-1.41 4.94-5.09 2.19 2.11-1.42 1.46-.72-.71-1.42 1.46 1.46 1.41L31 30.76l1.46 1.42L31 33.63 32.45 35l.71-.73 1.45 1.42ZM35.68 29.14l-1.22-1.63 4.88-3.64 1.21 1.63ZM43.08 25.09l1.78-1 .48.9 1.79-1-1-1.78L44 23.42l-2.2-.65-1.35-2.5.66-2.2 2.5-1.35 2.19.66.68 1.25-1.79 1-.48-.89-1.78 1 1 1.79 2.12-1.15 2.22.65 1.35 2.5-.66 2.19L46 27l-2.2-.66ZM48.86 16.34l-.65-1.92 3.84-1.3.65 1.88-1 .33 1.47 2.71.45-3.36 2.4 2.4-.48-3.05-1 .32-.54-1.88 3.84-1.29.65 1.92-1 .32 1 6.09 1-.32.65 1.92-3.71 1.25-.65-1.92.83-.28-1.61-1.6-.32 2.25.83-.28.65 1.92-3.75 1.25-.65-1.92 1-.33L49.82 16ZM62.92 20.52l-.39-2 1-.19-1.16-6-1 .19-.39-2 3.84-.75.39 2-.85.17 1.16 6 .86-.17.38 2ZM68.65 19.39l-.17-2 1-.09-.48-6.08-1 .09-.18-2 3-.27 3.53 5.51-.35-3.77-1 .09-.18-2 4-.36.18 2-1 .09.7 8.08-2 .18-3.53-5.51.33 3.75 1-.09.17 2ZM80.79 19.65l-1.27-1.91L80.86 11l1.91-1.27 2.79.55 1.27 1.91-.28 1.39-2-.4.2-1-2-.4-1.18 6 2 .39.39-2L83 16l.39-2 3 .59-.87 4.38-1.94 1.23ZM94.49 20.18l1.87.78-.39.93 1.87.78.78-1.87-2.25-.94-.87-2.12 1.09-2.62 2.12-.87 2.62 1.09.88 2.12-.55 1.31-1.87-.77.39-.94-1.87-.77-.78 1.87 2.22.92.9 2.13-1.09 2.62-2.12.88-2.62-1.09-.88-2.12ZM100.63 26.11l1-1.76.88.51 3-5.28-.88-.51 1-1.76 4.79 2.69.6 2.22-1.41 2.46-2.21.6-2.11-1.21-1 1.76.88.51-1 1.76Zm5.66-3.77 1.76 1 1-1.76-1.76-1ZM108.32 30.65l1.25-1.59.79.62 3.76-4.78-.79-.62 1.25-1.6 5.58 4.39-1.88 2.39-1.59-1.26.62-.79-1.59-1.25-1.26 1.59 1.6 1.25-1.25 1.6-1.6-1.26-1.21 1.6 1.59 1.25.63-.8 1.59 1.26-1.92 2.35ZM116.34 37.47l.06-2.29 5-4.73 2.29.07 2 2.06-.07 2.29-1 1-1.39-1.48.73-.69-1.39-1.48-4.42 4.18 1.39 1.47.74-.69 1.39 1.47-1 1-2.3-.06ZM120.55 42.21l1.64-1.2.6.82 4.9-3.6-.6-.81 1.64-1.2 2.27 3.15-1.64 1.2-.51-.7-4.85 3.59.52.7-1.64 1.2ZM124 46.85l1.78-1 .48.89 8.11-2 1 1.78-6.19 5.62.48.9-1.79 1-1.87-3.49 1.79-1 .41.77.77-.71-.72-1.34-1 .26.41.77-1.78.95Zm7.27.7-1 .25.24.45ZM128.48 55.67l1.91-.67.34 1 5.74-2-.34-1 1.92-.67 1.34 3.83-1.91.67-.34-1-5.74 2 .67 1.91 1-.34.67 1.92-2.87 1Z"/><path class="cls-1" d="m11.31 91.36.53 1.64-.79.26.52 1.59 1.59-.53-.64-1.9.85-1.69 2.21-.74 1.7.84L18 93l-.85 1.69-1.11.37-.53-1.59.8-.26-.53-1.58-1.59.52.65 1.85-.84 1.75-2.21.74-1.69-.85-.74-2.22.84-1.69ZM11.87 100.26l.69-1.76 5.2-2.27 1.76.69.94 2.14-.69 1.76-1.07.47-.7-1.53.76-.33-.66-1.53-4.59 2 .66 1.53.77-.33.67 1.53-1.07.46-1.76-.68ZM14.36 105.77l1.45-.83.41.72 4.36-2.48-.42-.72 1.45-.83 1.6 2.8-1.45.83-.36-.62-1.45.82.83 1.45 1.45-.82-.36-.63 1.46-.82 1.59 2.8-1.45.82-.41-.72L18.7 110l.42.72-1.45.83-1.6-2.8 1.45-.83.36.63 1.45-.83-.83-1.45-1.45.83.35.62-1.45.82ZM19.81 114.66l.29-1.87 4.58-3.35 1.86.28 1.38 1.89-.28 1.87-4.58 3.35-1.87-.29Zm1.54-.72 1 1.35 4-3-1-1.35ZM23.5 119.51l1.22-1.14.57.61 3.67-3.4-.57-.62 1.23-1.13 2.27 2.45-1.23 1.13-.56-.61-3.68 3.41 1.14 1.22.61-.57 1.14 1.23-1.84 1.7ZM29.29 125.55l1.06-1.3.64.54 5.53-4.1 1.29 1.06-3 6.22.65.53-1.06 1.29-2.49-2 1.09-1.34.55.46.37-.78-1-.8-.69.52.56.45-1.06 1.29Zm5.76-1.75-.69.51.32.26ZM36.55 131.27l.87-1.42.71.43 2.6-4.29-.72-.43.87-1.43 3.85 2.34.46 1.83-1.22 2-.68.17.17.69-1 1.71.71.43-.86 1.43-2.76-1.66.87-1.43.58.36.86-1.43-1.42-.87-.87 1.43.61.37-.86 1.43Zm4.74-3 1.43.86.86-1.43-1.42-.86ZM45.5 133.54l1.53.68-.34.76 1.52.68.68-1.52-1.83-.82-.67-1.76 1-2.14 1.76-.67 2.14.95.67 1.76-.47 1.07-1.53-.68.34-.76-1.52-.68-.68 1.52 1.81.81.69 1.77-.95 2.14-1.76.67-2.14-.95-.75-1.76ZM51.31 138.76l.5-1.59.79.25 1.5-4.78-.79-.25.5-1.59 3.07 1-.5 1.59-.68-.21-.5 1.59 1.59.5.5-1.59-.68-.21.5-1.6 3.07 1-.5 1.59-.8-.25-1.5 4.78.8.25-.5 1.59-3.07-1 .5-1.59.68.21.5-1.59-1.59-.5-.5 1.59.68.21-.5 1.6ZM59.92 141.26l.35-1.63.82.18 1-4.9-.82-.17.35-1.64 3.15.68-.35 1.63-.7-.15-1.05 4.9.7.15-.35 1.63ZM65.24 142.37l.22-1.66.83.11.67-5-.83-.11.22-1.66 4.47.61L72 136.2l-.32 2.31-1.5 1.15-2-.27-.23 1.66.83.11-.22 1.65Zm3.15-4.63L70 138l.23-1.65-1.66-.23ZM81.18 143.38l-1.5-1.15-.68-5.63 1.15-1.5 2.32-.3 1.5 1.15.15 1.16-1.66.22-.11-.83-1.65.22.64 5 1.66-.21-.22-1.66-.82.11-.22-1.66 2.48-.32.48 3.64-1.15 1.5ZM88.57 142.06l-1.63-.94-1.46-5.49 1-1.63 2.26-.6 1.63.94 1.46 5.49-1 1.63Zm-.1-1.69 1.61-.43-1.29-4.84-1.61.42ZM94.46 140.37l-.62-1.55.77-.31-1.87-4.65-.77.31-.63-1.55 3.1-1.25.62 1.55-.77.32 1.87 4.64 1.55-.62-.31-.78 1.55-.62.93 2.32ZM102.13 137.1l-.82-1.45.73-.41-2.45-4.37-.73.41-.86-1.46 5.1-2.86 1.23 2.19-1.46.81-.41-.72-1.45.81.81 1.46 1.46-.82.81 1.46-1.45.82.81 1.45.73-.41.82 1.46ZM115.17 128.39l-1.89-.12-3.74-4.27.12-1.88 1.76-1.54 1.89.12 3.74 4.27-.12 1.88Zm-.85-1.47 1.25-1.1-3.3-3.77-1.25 1.1ZM113.5 118.7l2.16-2.39 1.23 1.12-.48.53 3.72 3.36 1.12-1.24-3.72-3.36-.48.53-1.24-1.12 2.16-2.39 1.24 1.12-.56.62 4 3.58.09 1.89-1.56 1.74-1.89.09-4-3.58-.56.62ZM126.65 116.07l-1.37-1 .48-.68-4.09-2.89-.48.68.68.48-1 1.36-2-1.44 3.85-5.46 2 1.45-1 1.36-.68-.48-.48.68 4.09 2.89.48-.68 1.36 1ZM130.7 110l-1.44-.84.42-.72-4.32-2.53-.42.72-1.45-.84 1.63-2.78 1.44.84-.36.62 4.32 2.53.37-.62 1.44.84ZM133.45 105.31l-1.5-.72.36-.75-4.52-2.17-.36.75-1.51-.72 1.08-2.26 5.38-.19-2.8-1.34-.36.75-1.5-.72 1.44-3 1.51.72-.36.75 6 2.89-.72 1.51-5.39.19 2.8 1.34.36-.75 1.51.72ZM138 95.21l-1.73.77L131 94l-.77-1.72.83-2.18 1.73-.78 1.09.42-.6 1.56-.78-.3-.59 1.56 4.68 1.79.59-1.56-1.56-.59-.3.77-1.55-.59.89-2.34 3.43 1.31.77 1.73Z"/><path class="cls-4" d="M74.1 105.65c-.08-.19-.17-.39-.24-.59a2.67 2.67 0 0 1 0-2.31 1.75 1.75 0 0 1 2.45-.75 2 2 0 0 1 1.12 1.43 3 3 0 0 1 1.74-.3 1.56 1.56 0 0 1 1.4 1.84 2.28 2.28 0 0 1-1 1.44c-.39.24-.81.45-1.21.67a1.61 1.61 0 0 0-.28.17c.34-.08.68-.17 1-.23a2.38 2.38 0 0 1 2.32 1.1 2 2 0 0 1-1 2.49l-.12.06a2.08 2.08 0 0 1-.21 1.43 1.8 1.8 0 0 1-2.09 1 2.56 2.56 0 0 1-1.36-.78 6 6 0 0 1-1.28-1.87c-.06-.16-.1-.33-.16-.51-.76 1.54-.89 3 .44 4.33l-.87.43a3.91 3.91 0 0 1-.17-5c-.67.23-1.3.47-1.94.65a3.2 3.2 0 0 1-2.2 0 1.93 1.93 0 0 1-.51-3.25l.18-.15a1.86 1.86 0 0 1 1.3-2.78 2.48 2.48 0 0 1 2.09.87 7.21 7.21 0 0 1 .47.62ZM86.69 110.57c0-.13-.11-.25-.16-.38a1.74 1.74 0 0 1 0-1.48 1.1 1.1 0 0 1 1.56-.48 1.29 1.29 0 0 1 .72.91 2 2 0 0 1 1.11-.19 1 1 0 0 1 .9 1.18 1.46 1.46 0 0 1-.61.92c-.25.16-.52.29-.78.43a1.74 1.74 0 0 0-.18.11l.66-.15a1.52 1.52 0 0 1 1.48.71 1.25 1.25 0 0 1-.63 1.59h-.08a1.33 1.33 0 0 1-.13.92 1.17 1.17 0 0 1-1.34.63 1.65 1.65 0 0 1-.87-.51 3.81 3.81 0 0 1-.83-1.19q0-.15-.09-.33a2.17 2.17 0 0 0 .28 2.78l-.56.27a2.49 2.49 0 0 1-.11-3.17c-.43.14-.83.29-1.24.41a2.07 2.07 0 0 1-1.41 0 1.23 1.23 0 0 1-.33-2.08l.11-.09a1.2 1.2 0 0 1 .84-1.79 1.59 1.59 0 0 1 1.33.56 3 3 0 0 1 .31.4ZM62.49 110.57c-.05-.13-.11-.25-.16-.38a1.78 1.78 0 0 1 0-1.48 1.12 1.12 0 0 1 1.57-.48 1.29 1.29 0 0 1 .72.91 2 2 0 0 1 1.11-.19 1 1 0 0 1 .9 1.18 1.46 1.46 0 0 1-.61.92c-.25.16-.52.29-.78.43a1.74 1.74 0 0 0-.18.11l.66-.15a1.52 1.52 0 0 1 1.48.71 1.25 1.25 0 0 1-.63 1.59.29.29 0 0 1-.08 0 1.33 1.33 0 0 1-.13.92 1.17 1.17 0 0 1-1.34.63 1.65 1.65 0 0 1-.87-.51 3.81 3.81 0 0 1-.83-1.19q0-.15-.09-.33a2.18 2.18 0 0 0 .27 2.78l-.55.27a2.49 2.49 0 0 1-.11-3.17c-.43.14-.83.29-1.24.41a2.07 2.07 0 0 1-1.41 0 1.23 1.23 0 0 1-.33-2.08l.11-.09a1.2 1.2 0 0 1 .84-1.79 1.59 1.59 0 0 1 1.33.56 3 3 0 0 1 .31.4Z"/><path class="cls-3" d="M23.55 76c-.05-1-.15-3.64-.06-4.67H3.4c0 .59 0 1.17-.06 1.75V75.8c0 1.57.05 9.48 1 10.85l20.27-1c-.25-1.81-.93-7.15-1.06-9.65Z"/><path class="cls-2" d="m3.94 87.55-.28-.39c-.74-1-1.09-4.29-1.18-10.86v-5.84h21.96l-.08 1c-.08.9 0 3.27.07 4.55.11 2.35.77 7.61 1.07 9.58l.15 1Zm.3-15.34v4.04c.09 6.34.44 8.64.69 9.47l18.73-.9c-.32-2.28-.84-6.58-1-8.8 0-.74-.11-2.55-.09-3.84Z"/><path class="cls-7" d="m8.47 84-.09-1.9h.95l-.28-5.8h-1l.05 1-1.91.09-.09-2.85 7.63-.38.14 2.84-1.91.1-.05-1h-.95l.28 5.72.95-.05.09 1.91ZM14.53 77l-.06-1.33 1.45-1.6 2.66-.13 1.6 1.45.13 2.67-.54.6.6.54.13 2.67-1.45 1.6-2.67.13-1.6-1.45-.06-1.34 1.9-.09.05 1 1.9-.09-.09-1.91h-.95l-.09-1.91h.95l-.09-1.91-1.91.1.05 1Z"/><path class="cls-4" d="M76.13 44a2.17 2.17 0 0 1 0-.26 1.1 1.1 0 0 1 .43-.86.71.71 0 0 1 1 .16.82.82 0 0 1 .16.73 1.3 1.3 0 0 1 .7.2.64.64 0 0 1 .19.94 1 1 0 0 1-.61.36 5.65 5.65 0 0 1-.58 0h-.13l.42.1a1 1 0 0 1 .67.83.83.83 0 0 1-.82.75.93.93 0 0 1-.34.49.75.75 0 0 1-1 0 1.1 1.1 0 0 1-.36-.54 2.4 2.4 0 0 1-.14-.92 1.92 1.92 0 0 1 0-.22 1.41 1.41 0 0 0-.62 1.69h-.4a1.61 1.61 0 0 1 .83-1.87l-.84-.11a1.39 1.39 0 0 1-.82-.4.8.8 0 0 1 .4-1.3h.09a.77.77 0 0 1 1-.8 1 1 0 0 1 .62.7 3 3 0 0 1 .07.32Z"/><path class="cls-7" d="m130 83.48.08-1.91h.95l.22-5.72h-1v1l-1.91-.07.11-2.86 7.62.29L136 77h-2v-1h-1l-.21 5.72h1l-.07 1.9ZM136.61 77v-1.33l1.58-1.47 2.67.1 1.47 1.58-.1 2.67-.59.56.55.59-.1 2.67-1.58 1.47-2.67-.1-1.47-1.59.05-1.33 1.91.07v.95l1.91.08.07-1.91h-1l.08-1.9h.95l.07-1.91-1.91-.07v1Z"/></g></g></svg>