<svg xmlns="http://www.w3.org/2000/svg" viewBox="0 0 202.64 94.01"><defs><style>.cls-1{font-size:20.69px;stroke-width:0.5px;font-family:College;letter-spacing:0.1em;}.cls-1,.cls-2{fill:#0d8643;}.cls-1,.cls-6{stroke:#0c233f;stroke-miterlimit:10;}.cls-3{fill:#f3e99a;}.cls-4{fill:#33613f;}.cls-5{fill:#0c233f;}.cls-6{fill:none;stroke-width:2px;}</style></defs><g id="Layer_2" data-name="Layer 2"><g id="Layer_1-2" data-name="Layer 1"><text class="cls-1" transform="translate(26.8 87.53)">SPONSORSHIPS</text><g id="_6oTy15.tif" data-name="6oTy15.tif"><path class="cls-2" d="M136.4,47.31c0,.34-.05.66-.09,1a9.6,9.6,0,0,1-1.9,5,5.3,5.3,0,0,1-3.47,2.21,63.54,63.54,0,0,1-9.75.53,14.72,14.72,0,0,1-3.84-.5c-.15,0-.31-.08-.36-.25s.13-.23.22-.31l4.5-3.91a.82.82,0,0,1,.27-.2c.74-.2.84-.81.31-1.45a5.25,5.25,0,0,0-1.3-1.14c-2.29-1.45-4.5-3-6.86-4.4a.29.29,0,0,1-.18-.3c0-.19.2-.11.31-.11H118a6.16,6.16,0,0,1-.23-3.07,5.49,5.49,0,0,1-.09-.9c-.18,0-.22-.13-.22-.34v-.92a.55.55,0,0,1,0-.18s0-.06,0-.08a.72.72,0,0,1-.05-.41,6.18,6.18,0,0,1,0-1,1.77,1.77,0,0,1,0-.23c0-.1,0-.19,0-.28a5.24,5.24,0,0,1,0-.56.61.61,0,0,1,0-.13.43.43,0,0,0,0,0c0-.06,0-.12,0-.18V35.1h0l-.06-.78a2,2,0,0,0,0-.24H90.87l.18.44c1.55,4,1.39,7.87-1.13,11.49a5.71,5.71,0,0,1-1.42,1.48,20.85,20.85,0,0,0-2.23,1.74,3.76,3.76,0,0,1-2.51,1,3.51,3.51,0,0,1-2.89-.9c-.51-.5-1.06-1-1.52-1.52a8.38,8.38,0,0,1-2-3.78.77.77,0,0,1,.08-.61,6.26,6.26,0,0,1,1.42-1.66,2.8,2.8,0,0,1,2.77-.56c.28.09.56.16.85.24l1.95.55C83,40.74,81.52,39.54,80,38.33c-.15-.13-.26-.08-.4,0L77.1,39.68a.52.52,0,0,0-.28.39c-.25,1.1-.5,2.19-.77,3.28a.84.84,0,0,0,.08.64,33.83,33.83,0,0,1,2,4,1.91,1.91,0,0,0,.3.46c.63.75,1.25,1.52,1.9,2.26.24.28.14.41-.11.54a1.47,1.47,0,0,1-1.07.06,5,5,0,0,1-1.58-.79,17.9,17.9,0,0,1-3.43-3.19,11.63,11.63,0,0,1-1.38-2.78.29.29,0,0,1,0-.16,5.86,5.86,0,0,1,1.84-4.18,8.85,8.85,0,0,1,2.55-1.78,1,1,0,0,0-.52-.1,6.74,6.74,0,0,1-3-1c-.5-.33-.49-.34-.89.09a3.68,3.68,0,0,0-.6.82,7,7,0,0,0-.63,5.09,16.33,16.33,0,0,0,4.61,7.55,2.52,2.52,0,0,0,.79.54,9.16,9.16,0,0,0,5,.75,1.11,1.11,0,0,1,.57.06,38.82,38.82,0,0,1,6.2,3.23s0,0,0,.07a4.35,4.35,0,0,1-1,.36,20.31,20.31,0,0,1-4.66.41c-2.12,0-4.23-.14-6.33-.35a7.4,7.4,0,0,1-2.29-.35,6.8,6.8,0,0,1-3.59-3.47,11.14,11.14,0,0,1-1.06-4.58.65.65,0,0,0-.11.18,13,13,0,0,0-.35,4,5.76,5.76,0,0,0,3.17,5,8.59,8.59,0,0,0,4,.88l17.88-.12h.41a.94.94,0,0,0-.45-.31,8.75,8.75,0,0,1-1.64-1c-1.5-1.3-1.44-2.62.18-3.78a14.45,14.45,0,0,1,2.43-1.35,16.68,16.68,0,0,1,6.72-1.25,36.69,36.69,0,0,1,9,1.13,8,8,0,0,1,2.69,1,1.54,1.54,0,0,1,.46,2.45c-.08.11-.18.21-.27.32l-2.34,2.6h2.41l15.23,0a11.53,11.53,0,0,0,2.19-.15,7.72,7.72,0,0,0,2.34-.8,5.61,5.61,0,0,0,2.62-3A10.38,10.38,0,0,0,136.4,47.31Zm-25-3.83a5.31,5.31,0,0,1,1.8.7c.12.06.13.17.14.28.08.58.16,1.15.25,1.72a.84.84,0,0,1-.1.44c-.08.2-.17.21-.34.09l-4.71-3.13s0-.06-.09-.13C109.43,43.45,110.44,43.39,111.44,43.48Zm-5.36.3a.46.46,0,0,1,.48-.33h1.16a9.92,9.92,0,0,0-2,2.14A5.9,5.9,0,0,1,106.08,43.78Zm-5.52,5.41A16.14,16.14,0,0,0,95,50.45c-.79.37-1.54.82-2.3,1.24a4.79,4.79,0,0,0-.69.49c-1.56,1.26-1.64,2.68-.23,4.1l.52.5c-.39.14-.67-.06-1-.17s-.65-.26-1-.39c-.13,0-.25-.11-.14-.27s0-.35-.18-.46l-4.84-2.76c-.18-.1-.36-.16-.11-.41a41.1,41.1,0,0,1,8.09-6.55,11.36,11.36,0,0,1,2.38-1.08.4.4,0,0,1,.42,0l7,4.24.27.19A24.16,24.16,0,0,0,100.56,49.19Zm3.13-.62-6.67-4a.61.61,0,0,1-.13-.14,16,16,0,0,1,6.44.58,6.23,6.23,0,0,1,1.86,1c.18.14.21.24.09.44-.42.69-.82,1.38-1.21,2.08C104,48.63,103.9,48.69,103.69,48.57Zm12.55,6.8c.17.18.11.3-.12.39-.56.22-1.11.47-1.67.7a3.86,3.86,0,0,1-1.26.1c.41-.45.76-.85,1.12-1.23a5,5,0,0,0,.92-1.31,1.89,1.89,0,0,0-.53-2.36,5.87,5.87,0,0,0-2.54-1.18,43.78,43.78,0,0,0-7.66-1.29.47.47,0,0,1,0-.12,23.22,23.22,0,0,1,2.74-4.3c.66-.76.67-.76,1.48-.22,1.55,1,3.1,2,4.64,3.09.28.19.34.1.51-.14a3.18,3.18,0,0,0,.27-2.52,2,2,0,0,1,0-.25s0,0,0-.07l0,0a4.43,4.43,0,0,1,1,.53l5.54,3.64a4.75,4.75,0,0,1,.94.79c.22.24.3.39-.06.67-1,.82-2,1.72-3,2.59-.72.62-1.44,1.26-2.17,1.88C116.14,55,116,55.12,116.24,55.37Z"/><path class="cls-2" d="M76.46,57.84a8.75,8.75,0,0,1-4-.9,6,6,0,0,1-3.27-5.11,13.09,13.09,0,0,1,.35-4.08.68.68,0,0,1,.09-.17l0-.07L70,47l0,.63a10.84,10.84,0,0,0,1,4.51,6.68,6.68,0,0,0,3.49,3.38,5.14,5.14,0,0,0,1.67.29l.56,0a61.31,61.31,0,0,0,6.28.35h0a20.34,20.34,0,0,0,4.62-.4,6.06,6.06,0,0,0,.71-.22l-1.28-.74a26,26,0,0,0-4.66-2.34,1,1,0,0,0-.48-.06,9.09,9.09,0,0,1-5.13-.76,2.66,2.66,0,0,1-.86-.58,16.4,16.4,0,0,1-4.66-7.63A7.27,7.27,0,0,1,72,38.22a3.45,3.45,0,0,1,.62-.86c.46-.5.56-.51,1.12-.13a6.48,6.48,0,0,0,3,1h.11a.88.88,0,0,1,.49.12l.3.2-.33.14a8.58,8.58,0,0,0-2.51,1.74,5.63,5.63,0,0,0-1.77,4v.09c.13.27.25.57.36.86a6.47,6.47,0,0,0,1,1.86,17.63,17.63,0,0,0,3.4,3.15,4.47,4.47,0,0,0,1.51.76,1.28,1.28,0,0,0,.94,0c.13-.06.15-.1.15-.1h0a.47.47,0,0,0-.09-.14c-.44-.49-.86-1-1.26-1.5-.22-.26-.43-.52-.65-.77A2.37,2.37,0,0,1,78,48.1a34.88,34.88,0,0,0-2-4,1,1,0,0,1-.11-.78c.24-.94.48-2,.78-3.28a.67.67,0,0,1,.37-.51c.8-.42,1.59-.85,2.38-1.28l.15-.08a.48.48,0,0,1,.61,0l.67.54c1.24,1,2.53,2.06,3.77,3.15l.62.54-3-.83c-.22-.06-.43-.11-.63-.18a2.6,2.6,0,0,0-2.59.53,5.79,5.79,0,0,0-1.38,1.61.58.58,0,0,0,0,.47,8.08,8.08,0,0,0,1.91,3.7c.32.36.67.71,1,1,.17.15.33.31.49.47a3.33,3.33,0,0,0,2.74.84,3.63,3.63,0,0,0,2.4-1,19.07,19.07,0,0,1,2.25-1.76,5.43,5.43,0,0,0,1.37-1.44c2.37-3.4,2.73-7.1,1.11-11.31a2.66,2.66,0,0,0-.11-.28l-.17-.42h26.82l.06.15,0,.24c0,.2,0,.39,0,.57l0,.24v.15s0,.07,0,.11v.08s0,0,0,.06a5,5,0,0,0,0,.57v0c0,.09,0,.18,0,.27a1.7,1.7,0,0,0,0,.22,6.31,6.31,0,0,0,0,.94v.05a.5.5,0,0,0,0,.3l0,.13v1.13a.55.55,0,0,0,0,.14h0l.16,0v.16a4.85,4.85,0,0,0,.08.87v.07a6.12,6.12,0,0,0,.22,3l.09.25h-4.1a.25.25,0,0,0,.09.07c1.47.85,2.91,1.81,4.31,2.73.83.56,1.69,1.13,2.55,1.67a5.24,5.24,0,0,1,1.34,1.18,1.23,1.23,0,0,1,.34,1.14A.94.94,0,0,1,122,51a.4.4,0,0,0-.13.11l-.21.17-4.35,3.79-.11.08a.18.18,0,0,0-.07,0s.07.06.22.1a15.22,15.22,0,0,0,3.82.51,64.47,64.47,0,0,0,9.71-.53,5.09,5.09,0,0,0,3.35-2.15,9.19,9.19,0,0,0,1.86-4.89c0-.21,0-.43.06-.65l.12-1.23.28.86a10.62,10.62,0,0,1,0,6.12,5.76,5.76,0,0,1-2.71,3.13,7.48,7.48,0,0,1-2.4.82,12.23,12.23,0,0,1-2.22.16l-12.26,0h-5.8l2.62-2.92a3.31,3.31,0,0,0,.25-.3,1.36,1.36,0,0,0-.4-2.19,6.84,6.84,0,0,0-2.33-.84l-.3-.07a36,36,0,0,0-9-1.13,16.2,16.2,0,0,0-6.65,1.24A13.66,13.66,0,0,0,93,52.55a2.42,2.42,0,0,0-1.18,1.7,2.34,2.34,0,0,0,1,1.79,8,8,0,0,0,1.5,1l.11.06.09,0a.87.87,0,0,1,.42.33l.21.29h-.76l-17.89.13Zm-6.78-9.09a12,12,0,0,0-.16,3,5.52,5.52,0,0,0,3.07,4.8,8.25,8.25,0,0,0,4,.86l17.68-.12,0,0a7.65,7.65,0,0,1-1.56-1,2.71,2.71,0,0,1-1.15-2.09,2.74,2.74,0,0,1,1.34-2,14.06,14.06,0,0,1,2.47-1.37,16.51,16.51,0,0,1,6.79-1.27,36.87,36.87,0,0,1,9.08,1.14l.3.07a7.48,7.48,0,0,1,2.45.9,1.73,1.73,0,0,1,.5,2.72,2.88,2.88,0,0,1-.28.33l-2,2.29h5l12.26,0a12.21,12.21,0,0,0,2.15-.15,7.37,7.37,0,0,0,2.29-.78,5.33,5.33,0,0,0,2.53-2.93,9.79,9.79,0,0,0,.22-4.83,9.49,9.49,0,0,1-1.92,5,5.42,5.42,0,0,1-3.6,2.29,63.93,63.93,0,0,1-9.77.53,14.81,14.81,0,0,1-3.89-.51.59.59,0,0,1-.49-.38.41.41,0,0,1,.22-.47l.06,0L121.44,51l.2-.17a.73.73,0,0,1,.29-.19.65.65,0,0,0,.48-.37.88.88,0,0,0-.27-.78,5.07,5.07,0,0,0-1.25-1.1c-.86-.55-1.72-1.12-2.56-1.67-1.39-.92-2.83-1.87-4.29-2.72a.48.48,0,0,1-.28-.5c0-.15.13-.32.45-.27h.05c1.11,0,2.23,0,3.34,0h.12a6.5,6.5,0,0,1-.17-2.88c0-.25-.06-.5-.08-.76a.5.5,0,0,1-.22-.48v-.9a.86.86,0,0,1,0-.15V38a.86.86,0,0,1,0-.44,6.64,6.64,0,0,1,0-1,2.35,2.35,0,0,1,0-.26,2,2,0,0,0,0-.25c0-.17,0-.35,0-.56s0-.1,0-.14a.07.07,0,0,0,0,0,.62.62,0,0,1,0-.13V34.9c0-.19,0-.38-.05-.57v-.07h-26l.08.18c1.66,4.34,1.29,8.16-1.16,11.67a6,6,0,0,1-1.46,1.53,18.54,18.54,0,0,0-2.21,1.72,4,4,0,0,1-2.63,1.08,3.75,3.75,0,0,1-3-1c-.16-.16-.32-.32-.49-.47-.35-.34-.72-.69-1-1.07a8.41,8.41,0,0,1-2-3.87,1,1,0,0,1,.1-.74,6.36,6.36,0,0,1,1.46-1.71,3,3,0,0,1,3-.59l.6.18,1.38.38c-1-.89-2.09-1.75-3.12-2.59l-.67-.54c-.06,0-.07-.06-.19,0l-.15.08-2.39,1.28a.33.33,0,0,0-.17.26c-.31,1.33-.55,2.35-.78,3.29a.59.59,0,0,0,.07.5,35.58,35.58,0,0,1,2,4.05,1.38,1.38,0,0,0,.26.41l.65.78c.4.49.82,1,1.25,1.49a.57.57,0,0,1,.18.46.56.56,0,0,1-.35.37,1.69,1.69,0,0,1-1.2.07,5.25,5.25,0,0,1-1.64-.82A18.64,18.64,0,0,1,74,47.5a7,7,0,0,1-1-2c-.11-.28-.23-.58-.36-.86a.38.38,0,0,1,0-.23,6.08,6.08,0,0,1,1.9-4.33,10,10,0,0,1,2.08-1.56,7,7,0,0,1-3-1c-.36-.25-.36-.25-.65.06a3.79,3.79,0,0,0-.56.78,6.91,6.91,0,0,0-.62,5,15.93,15.93,0,0,0,4.56,7.46,2.11,2.11,0,0,0,.74.5,8.8,8.8,0,0,0,4.92.74,1.37,1.37,0,0,1,.66.07,25.82,25.82,0,0,1,4.73,2.37c.5.3,1,.59,1.51.87a.31.31,0,0,1,.11.15l.08.16-.16.1a4.49,4.49,0,0,1-1.08.38,20.47,20.47,0,0,1-4.7.41h0c-1.9,0-4-.12-6.31-.35l-.55,0a5.54,5.54,0,0,1-1.79-.32,7.06,7.06,0,0,1-3.69-3.57A10.94,10.94,0,0,1,69.68,48.75ZM92.08,57a1.47,1.47,0,0,1-.6-.15l-.17-.07q-.3-.1-.6-.24l-.38-.15a.45.45,0,0,1-.3-.26.34.34,0,0,1,.07-.3.44.44,0,0,0,.05-.09L90,55.66,87,54l-1.92-1.09c-.12-.06-.26-.14-.28-.3a.47.47,0,0,1,.18-.38,41.36,41.36,0,0,1,8.12-6.58,11.93,11.93,0,0,1,2.42-1.1.6.6,0,0,1,.58,0l5.51,3.35,1.5.9.13.09.67.46h-.64a23.68,23.68,0,0,0-2.7.06h0a16,16,0,0,0-5.46,1.25c-.63.29-1.24.63-1.84,1l-.45.26a3.63,3.63,0,0,0-.66.47A2.62,2.62,0,0,0,91,54.18a2.65,2.65,0,0,0,.94,2l.33.31.42.4-.29.1A1,1,0,0,1,92.08,57Zm-1.65-1h0l.4.16.58.24.18.07a1.81,1.81,0,0,0,.27.1l-.21-.2A2.63,2.63,0,0,1,91.93,52a5.69,5.69,0,0,1,.71-.5l.46-.26c.6-.34,1.22-.69,1.86-1A16.65,16.65,0,0,1,100.55,49h0c.68,0,1.35-.07,2.08-.07l-1.2-.73q-2.76-1.66-5.51-3.34c-.08,0-.12,0-.24,0a12.07,12.07,0,0,0-2.38,1.07,41.19,41.19,0,0,0-8,6.53l0,0,.06,0,0,0,1.88,1.07,3,1.69c.16.09.32.18.36.36A.49.49,0,0,1,90.43,56Zm22.31.75.68-.75.75-.83a4.85,4.85,0,0,0,.88-1.25,1.7,1.7,0,0,0-.47-2.15,5.83,5.83,0,0,0-2.46-1.14,43.35,43.35,0,0,0-7.63-1.28h-.18v-.18a.38.38,0,0,1,0-.21,23.61,23.61,0,0,1,2.77-4.33c.71-.83.83-.85,1.72-.26l1.05.69c1.2.8,2.41,1.59,3.6,2.4a.5.5,0,0,0,.13.07l.11-.15a2.92,2.92,0,0,0,.25-2.35,1.06,1.06,0,0,1,0-.23h0a.24.24,0,0,1,0-.12.21.21,0,0,1,.11-.19l.12-.08.13.1a4.19,4.19,0,0,1,.81.44l.15.11c1.23.79,2.45,1.6,3.67,2.4l1.88,1.23a5,5,0,0,1,1,.82A.65.65,0,0,1,122,50a.68.68,0,0,1-.31.46c-.75.59-1.48,1.23-2.19,1.86l-.82.72-.69.6c-.49.43-1,.86-1.49,1.28,0,0-.16.14-.16.19a.26.26,0,0,0,.07.12.45.45,0,0,1,.14.39.47.47,0,0,1-.33.3l-1.08.46-.59.25a2,2,0,0,1-.88.11h-.44Zm.88-.41h0a1.76,1.76,0,0,0,.74-.08L115,56l1.09-.46.09,0,0,0h0a.57.57,0,0,1-.17-.4.73.73,0,0,1,.3-.45c.5-.42,1-.85,1.48-1.28l.69-.6c.27-.23.55-.47.82-.72.71-.62,1.44-1.27,2.2-1.87.17-.12.18-.18.18-.19s-.11-.17-.14-.2a5,5,0,0,0-.9-.77l-1.88-1.23L115,45.38l-.15-.1a3.74,3.74,0,0,0-.53-.32A3.24,3.24,0,0,1,114,47.6c-.17.25-.34.48-.76.19l-3.6-2.39-1-.69c-.69-.46-.69-.46-1.23.18A22.74,22.74,0,0,0,104.74,49a44.06,44.06,0,0,1,7.47,1.27,6,6,0,0,1,2.61,1.23,2.07,2.07,0,0,1,.58,2.58,5,5,0,0,1-1,1.36l-.74.82Zm-9.75-7.55a.58.58,0,0,1-.28-.09h0L98.77,45.8l-1.85-1.11s-.07-.07-.11-.1l-.06-.08-.27-.28.39,0a15.86,15.86,0,0,1,6.52.58,6.62,6.62,0,0,1,1.92,1,.46.46,0,0,1,.13.69c-.44.73-.86,1.46-1.2,2.07-.07.11-.15.24-.29.27Zm-.08-.41.07,0,0-.08c.35-.62.76-1.35,1.21-2.08a.35.35,0,0,0,0-.11s0,0-.09-.09a6.49,6.49,0,0,0-1.81-.94,15.26,15.26,0,0,0-5.87-.61l1.56.95,4.83,2.93ZM113.37,47a.5.5,0,0,1-.28-.11l-3.24-2.16-1.47-1a.6.6,0,0,1-.11-.12l-.16-.22-.27.2a8.49,8.49,0,0,0-1.79,1.94l-.5.66,0-.62a5.59,5.59,0,0,1,.33-1.87h0a.66.66,0,0,1,.66-.45c.23,0,.47,0,.74,0h2c.74,0,1.44,0,2.15,0h0a4.24,4.24,0,0,1,1.49.54l.37.18a.47.47,0,0,1,.25.41v.08c.07.55.15,1.1.23,1.65a.88.88,0,0,1-.09.5v0a.41.41,0,0,1-.25.27Zm-4.45-3.34,1.14.76c1.08.72,2.16,1.43,3.24,2.16l0,0s0,0,0,0v0a.63.63,0,0,0,.07-.31c-.09-.55-.16-1.1-.24-1.65v-.06c0-.13,0-.13,0-.14l-.38-.19a4.18,4.18,0,0,0-1.35-.5,21,21,0,0,0-2.11,0Zm-2.66.21h0A3.76,3.76,0,0,0,106,45a9.14,9.14,0,0,1,1.18-1.32h-.63A.26.26,0,0,0,106.26,43.85Z"/><path class="cls-2" d="M109.84,28.81a1.92,1.92,0,0,0-1.25,0,5.88,5.88,0,0,1-.84.27c-.18.05-.42.09-.52-.14a3.33,3.33,0,0,1-.36-1.09H107a1.43,1.43,0,0,1-.28-.64.29.29,0,0,1,0-.09c0-.07,0-.07,0,0h0a1.2,1.2,0,0,1-.09-.88,1.56,1.56,0,0,1,.14-.33.35.35,0,0,1,0-.27A4.65,4.65,0,0,1,108.68,23c.19-.14.23-.22.08-.42a3.3,3.3,0,0,1-.63-1.32l4,.14c-.08-.19-.23-.22-.34-.3-1.13-.73-2.27-1.47-3.41-2.19a.47.47,0,0,1-.25-.58q.75-3.18,1.47-6.37a12.27,12.27,0,0,0,.54-3.41,3.8,3.8,0,0,0-1.5-3.16,11.76,11.76,0,0,1-2.14-2A8,8,0,0,1,104.67.51c-.1-.34-.2-.4-.53-.23L93.73,5.5a.48.48,0,0,1-.68-.12c-.5-.53-1-1-1.56-1.54a.69.69,0,0,0-.72-.25c-.28.09-.34.35-.4.6a9.08,9.08,0,0,0-.06,1.73c0,.69,0,.68-.66.87A23.15,23.15,0,0,0,79.72,13a28,28,0,0,0-3,4.2c-.14.19,0,.27.1.38L89.58,32.07a.38.38,0,0,0,.5.14l4.46-1.42a1,1,0,0,1,.72,0A20.26,20.26,0,0,0,105,32.53a9.59,9.59,0,0,0,4-1.19A3.56,3.56,0,0,0,110.32,30,.75.75,0,0,0,109.84,28.81Zm-11.19-25c.18-.09.32,0,.48,0a15.53,15.53,0,0,1,5.89,4,21,21,0,0,1,3.5,5,.94.94,0,0,1,.07.68c-.35,1.5-.69,3-1,4.52,0,.07,0,.14-.09.19s-.21-.17-.3-.27A35.94,35.94,0,0,0,100,11.78l-.09-.07A1.86,1.86,0,0,1,99,11h0c-.12.08-.18,0-.25-.1L93.88,6.18ZM90.21,31.45c-.25.09-.32-.07-.44-.2L84.65,25.4q-3.39-3.87-6.77-7.73c-.11-.12-.21-.25-.38-.45,1.72.35,3.4.1,5.06.34a4.46,4.46,0,0,1,2.38,1.09.46.46,0,0,1,.17.48,3.79,3.79,0,0,0,1.12,3.39,2.08,2.08,0,0,0,1.8.64,1.09,1.09,0,0,0,1.08-1.08,1.94,1.94,0,0,0,0-.76c0-.16,0-.47-.33-.38s-.45.15-.36.5a.78.78,0,0,1-.23.92,1,1,0,0,1-1.08-.06,3.11,3.11,0,0,1-1.28-3A2.33,2.33,0,0,1,88,17.39c.65-.08.92.09,1.15.72a4.21,4.21,0,0,1,.16,1.46c0,.13,0,.29.15.34a1.66,1.66,0,0,1,1,.88,10.72,10.72,0,0,1,1.69,5.74c0,.59,0,1.19,0,1.78a1.34,1.34,0,0,0,.63,1.13c.4.26.81.5,1.28.79Zm16.25-1.18a12.79,12.79,0,0,1-2.63.91,7.63,7.63,0,0,1-5.12-.71q-1.35-.66-2.64-1.44a9.12,9.12,0,0,1-3.57-4.48c-.74-1.74-1.18-3.58-1.78-5.36a23.38,23.38,0,0,0-1.08-2.7,9.69,9.69,0,0,0-2.88-3.65,10.61,10.61,0,0,1-1.53-1.39,2.57,2.57,0,0,1-.54-.8A.79.79,0,0,1,85,9.57a17.33,17.33,0,0,1,5.09-2.21,1.23,1.23,0,0,1,.92.1c2.27,1.2,4.57,2.34,6.82,3.56a41.18,41.18,0,0,1,4.85,3.37,31.84,31.84,0,0,1,4.21,3.66,1.17,1.17,0,0,1,.38,1.18,4.5,4.5,0,0,0,.5,3.07c.16.32.1.46-.15.69A4.69,4.69,0,0,0,106,27c0,.48-.43.38-.68.66a10.83,10.83,0,0,1-.11-1.74,2.26,2.26,0,0,1,.43-1.38,1.82,1.82,0,0,0-.21-2.73c-.2-.15,0-.76.26-.79s.28-.17.26-.36a.53.53,0,0,1,.4-.67c.26-.08.42-.31.62-.6a1.25,1.25,0,0,1-1.29-.61c-.31-.4-.64-.79-1-1.17a.69.69,0,0,0-1-.2,3.52,3.52,0,0,0-1,.93,8.83,8.83,0,0,1,1-.24.68.68,0,0,1,.68.33c.29.44.6.88.93,1.3a.27.27,0,0,1,0,.34c-.07.14-.14.26-.34.25-.39,0-.79,0-1.18,0s-.35.09-.35.36.11.35.37.33h1c-.16.34-.41.65-.37.91s.48.32.69.56a1.14,1.14,0,0,1,0,1.52,3.89,3.89,0,0,0-.6,2.93,21.13,21.13,0,0,0,.31,2.64c0,.18,0,.36.29.27s.49,0,.39-.37a6.45,6.45,0,0,1-.14-.88.5.5,0,0,1,.42-.58.31.31,0,0,1,.43.25,5.79,5.79,0,0,0,.49,1.21C107,29.91,107,30,106.46,30.27Z"/><path class="cls-2" d="M103.39,32.8A21.44,21.44,0,0,1,95.19,31a.75.75,0,0,0-.59,0l-1.89.6-2.57.82a.58.58,0,0,1-.7-.19l-9.7-11.09-3-3.45,0-.05a.41.41,0,0,1-.08-.57c.34-.47.64-1,.94-1.44a13.44,13.44,0,0,1,2.06-2.78,23.15,23.15,0,0,1,10-6.22c.52-.14.52-.14.52-.66,0-.2,0-.37,0-.54a5.28,5.28,0,0,1,.07-1.25.86.86,0,0,1,.52-.74.9.9,0,0,1,.91.29l.29.28c.42.41.86.84,1.28,1.27.16.18.23.19.45.08q2.53-1.27,5.08-2.54L104.06.11a.6.6,0,0,1,.5-.08.61.61,0,0,1,.29.42,7.73,7.73,0,0,0,1.82,2.87,12,12,0,0,0,2.1,1.94,3.88,3.88,0,0,1,1.58,3.3,9.62,9.62,0,0,1-.39,2.85c0,.21-.1.41-.14.61-.44,2-.92,4-1.47,6.38,0,.19,0,.26.16.37,1,.65,2.09,1.33,3.11,2l.3.2.07,0a.69.69,0,0,1,.34.34l.12.28-4.07-.14a3.28,3.28,0,0,0,.52,1,.44.44,0,0,1,.13.37.48.48,0,0,1-.24.32A4.5,4.5,0,0,0,107,25.71a.37.37,0,0,0,0,.14l0,.09-.06.09a1.31,1.31,0,0,0-.12.28,1,1,0,0,0,.08.75l0,.06v.07h0a1.22,1.22,0,0,0,.25.58l.26.32h-.34a3.58,3.58,0,0,0,.29.77l0,0c0,.06.07.1.31,0a5.83,5.83,0,0,0,.71-.22l.11,0a2,2,0,0,1,1.37-.05h0a1,1,0,0,1,.69.58,1,1,0,0,1-.11.88A3.62,3.62,0,0,1,109,31.5,9.87,9.87,0,0,1,105,32.72C104.46,32.77,103.93,32.8,103.39,32.8Zm-8.51-2.26a1,1,0,0,1,.45.1,19.83,19.83,0,0,0,9.62,1.7,9.34,9.34,0,0,0,3.9-1.17,3.29,3.29,0,0,0,1.3-1.26.67.67,0,0,0,.09-.56.72.72,0,0,0-.46-.36h0a1.73,1.73,0,0,0-1.12,0l-.12,0a6,6,0,0,1-.75.24c-.15,0-.56.13-.73-.25l0,0a3.17,3.17,0,0,1-.36-1.1l0-.22h0a1.44,1.44,0,0,1-.13-.4.44.44,0,0,1,0-.1v0a1.42,1.42,0,0,1-.08-.95,1.3,1.3,0,0,1,.13-.3.72.72,0,0,1,0-.29,4.92,4.92,0,0,1,2-2.76l.09-.07,0-.08a3.51,3.51,0,0,1-.66-1.39l-.06-.24,3.72.13-.2-.13c-1-.66-2.06-1.34-3.1-2a.64.64,0,0,1-.33-.78c.55-2.33,1-4.42,1.47-6.37,0-.21.09-.41.14-.62A9.31,9.31,0,0,0,110,8.58a3.57,3.57,0,0,0-1.42-3,12.11,12.11,0,0,1-2.17-2,8.09,8.09,0,0,1-1.9-3,.59.59,0,0,0-.08-.19s0,0-.18.08L98.88,3.13,93.81,5.66a.65.65,0,0,1-.9-.15c-.41-.43-.84-.85-1.27-1.26L91.35,4c-.21-.2-.35-.26-.52-.2s-.22.22-.27.46a5,5,0,0,0-.06,1.16c0,.18,0,.36,0,.53,0,.77-.07.85-.79,1a22.84,22.84,0,0,0-9.86,6.12,13.78,13.78,0,0,0-2,2.7c-.23.38-.48.78-.73,1.16l.42.08a13.74,13.74,0,0,0,2.77.22,15.78,15.78,0,0,1,2.27.12,4.74,4.74,0,0,1,2.48,1.14.66.66,0,0,1,.24.65,3.57,3.57,0,0,0,1.06,3.23A1.94,1.94,0,0,0,88,23a.92.92,0,0,0,.91-.92,1.69,1.69,0,0,0,0-.68,1.35,1.35,0,0,1,0-.18.25.25,0,0,0,0-.09h-.07s-.2.05-.23.1a.28.28,0,0,0,0,.17,1,1,0,0,1-.32,1.12,1.16,1.16,0,0,1-1.27,0,3.29,3.29,0,0,1-1.38-3.22,2.52,2.52,0,0,1,2.36-2,1.07,1.07,0,0,1,1.34.83,4.18,4.18,0,0,1,.18,1.53v.07s0,.08,0,.09a1.79,1.79,0,0,1,1.16,1,16.69,16.69,0,0,1,1,1.94c-.17-.52-.33-1-.48-1.55s-.37-1.23-.58-1.84a23.37,23.37,0,0,0-1.07-2.68A9.42,9.42,0,0,0,86.65,13a10.46,10.46,0,0,1-1.56-1.41,2.88,2.88,0,0,1-.58-.86,1,1,0,0,1,.42-1.31,17.21,17.21,0,0,1,5.15-2.23,1.36,1.36,0,0,1,1,.12l2.72,1.4c1.34.7,2.74,1.42,4.1,2.15a35.13,35.13,0,0,1,4.14,2.83l.73.56c.7.53,1.47,1.12,2.23,1.77a32.78,32.78,0,0,0-5.11-4.07l-.08-.06a2.11,2.11,0,0,1-1-.67.43.43,0,0,1-.28-.15l-4.06-4-1-1,1.37-.69,3.63-1.82a.67.67,0,0,1,.58,0l.06,0a15.69,15.69,0,0,1,6,4,21.44,21.44,0,0,1,3.52,5,1.09,1.09,0,0,1,.1.81c-.27,1.12-.52,2.24-.78,3.36L107.74,18a.37.37,0,0,1-.19.31l-.06,0h-.11a1.25,1.25,0,0,1,.1.93,4.27,4.27,0,0,0,.49,2.93.67.67,0,0,1-.19.92,4.49,4.49,0,0,0-1.61,3.9.61.61,0,0,1-.46.64.64.64,0,0,0-.27.15l-.27.31-.06-.41A11.26,11.26,0,0,1,105,26a2.4,2.4,0,0,1,.47-1.48,1.63,1.63,0,0,0-.18-2.47.57.57,0,0,1-.12-.61c.06-.22.22-.49.48-.52a.19.19,0,0,0,.1,0,.27.27,0,0,0,0-.12.74.74,0,0,1,.53-.87.66.66,0,0,0,.29-.22,1.57,1.57,0,0,1-1-.69c-.31-.4-.64-.79-1-1.17a.51.51,0,0,0-.77-.15,2.09,2.09,0,0,0-.55.4,1.29,1.29,0,0,1,.4-.07.88.88,0,0,1,.84.41c.25.39.54.8.92,1.3a.47.47,0,0,1,0,.54.53.53,0,0,1-.51.35,4.86,4.86,0,0,0-.54,0h-.65a.22.22,0,0,0-.13,0,.35.35,0,0,0,0,.16c0,.11,0,.14,0,.14h.16q.33,0,.69,0h.62l-.12.27a3.24,3.24,0,0,1-.17.32,1.05,1.05,0,0,0-.19.49c0,.05.15.12.25.17a1.41,1.41,0,0,1,.4.29,1.32,1.32,0,0,1,.05,1.76,3.51,3.51,0,0,0-.57,2.65V27a23.88,23.88,0,0,0,.31,2.62v0s0,.06,0,.09h0a.57.57,0,0,1,.18,0l.1,0a.45.45,0,0,0,0-.08,3.64,3.64,0,0,1-.12-.71l0-.19a.7.7,0,0,1,.55-.79.5.5,0,0,1,.67.38,5.92,5.92,0,0,0,.47,1.17.74.74,0,0,1,.15.6c-.06.19-.23.31-.5.43a12.76,12.76,0,0,1-2.67.92,7.81,7.81,0,0,1-5.25-.72c-.92-.45-1.81-.94-2.64-1.45a9.21,9.21,0,0,1-3.66-4.57c-.11-.25-.21-.51-.31-.77a8.38,8.38,0,0,1,.34,2.69v.25c0,.49,0,1,0,1.51a1.16,1.16,0,0,0,.54,1l.87.54.76.47-1.43.45-2.8.89h0a.47.47,0,0,1-.59-.2l-.05-.06L77.74,17.8a3.45,3.45,0,0,1-.23-.28L77.08,17l-.18.26a.06.06,0,0,0,0,0l.06.05.06.06,3,3.45L89.72,32c.11.12.15.13.3.08l2.58-.82,1.88-.6A1.16,1.16,0,0,1,94.88,30.54ZM78,17.49l0,.06,11.9,13.57,0,.07c.09.11.09.11.18.09.93-.31,1.85-.6,2.81-.9l.64-.2-.06,0-.87-.54A1.55,1.55,0,0,1,92,28.32c0-.52,0-1,0-1.55v-.24a10.78,10.78,0,0,0-1.67-5.65,1.51,1.51,0,0,0-.92-.79.4.4,0,0,1-.3-.47v-.06a4,4,0,0,0-.15-1.39c-.19-.54-.39-.66-.94-.59a2.15,2.15,0,0,0-2,1.74,3,3,0,0,0,1.19,2.81c.38.21.65.23.88.07a.58.58,0,0,0,.16-.71.59.59,0,0,1,0-.46.67.67,0,0,1,.46-.27.39.39,0,0,1,.55.41.25.25,0,0,0,0,.09,2.11,2.11,0,0,1,.06.83,1.29,1.29,0,0,1-1.25,1.26,2.28,2.28,0,0,1-2-.7,4,4,0,0,1-1.16-3.55.3.3,0,0,0-.12-.31,4.32,4.32,0,0,0-2.28-1,16.3,16.3,0,0,0-2.23-.13A16.8,16.8,0,0,1,78,17.49Zm12.51-10a1.76,1.76,0,0,0-.31,0,17,17,0,0,0-5,2.19.6.6,0,0,0-.27.85,2.29,2.29,0,0,0,.5.75,10.88,10.88,0,0,0,1.51,1.36,9.8,9.8,0,0,1,2.93,3.72,24.88,24.88,0,0,1,1.09,2.72c.21.61.4,1.24.58,1.85a35.2,35.2,0,0,0,1.19,3.5,8.87,8.87,0,0,0,3.5,4.39,29.78,29.78,0,0,0,2.62,1.43,7.38,7.38,0,0,0,5,.69,12.19,12.19,0,0,0,2.59-.89h0c.24-.12.3-.18.3-.2s-.08-.24-.12-.31a6.38,6.38,0,0,1-.5-1.24c0-.16-.09-.16-.2-.13-.29.09-.3.26-.28.38l0,.19a6.49,6.49,0,0,0,.11.66.48.48,0,0,1,0,.4.5.5,0,0,1-.37.18l-.11,0a.42.42,0,0,1-.35,0,.5.5,0,0,1-.19-.37,23.88,23.88,0,0,1-.31-2.7v-.15a3.87,3.87,0,0,1,.66-2.91.94.94,0,0,0,0-1.27.93.93,0,0,0-.29-.2c-.19-.1-.41-.22-.44-.46a1.14,1.14,0,0,1,.23-.72l0,0h0c-.24,0-.45,0-.67,0a.58.58,0,0,1-.44-.11.5.5,0,0,1-.13-.42.56.56,0,0,1,.14-.43.58.58,0,0,1,.41-.11h.62c.19,0,.38,0,.56,0s.09,0,.16-.15,0-.06,0-.13c-.39-.51-.69-.93-.94-1.32a.52.52,0,0,0-.51-.24,1.56,1.56,0,0,0-.49.11,3,3,0,0,1-.48.13l-.5.08.33-.39a3.59,3.59,0,0,1,1.1-1,.89.89,0,0,1,1.24.24c.32.39.65.78,1,1.19a1.08,1.08,0,0,0,1.11.54l.19,0v0a1,1,0,0,0-.34-1,31.93,31.93,0,0,0-4.18-3.64l-.74-.56a32.76,32.76,0,0,0-4.09-2.79C96.41,10.45,95,9.73,93.67,9c-.9-.47-1.81-.93-2.71-1.41A1.12,1.12,0,0,0,90.48,7.5ZM107,19.63a1.38,1.38,0,0,1-.65.58c-.24.07-.3.18-.27.47a.44.44,0,0,1-.43.57s-.08.05-.13.16a.42.42,0,0,0,0,.3,2,2,0,0,1,.24,3,2,2,0,0,0-.39,1.26,10,10,0,0,0,.07,1.41l.11-.05c.21-.09.24-.11.23-.26a4.93,4.93,0,0,1,1.73-4.22c.2-.17.23-.22.11-.46A4.8,4.8,0,0,1,107,19.63ZM99,10.75l.11.13a1.69,1.69,0,0,0,.9.65l.07,0,.08.06a36.44,36.44,0,0,1,7.15,6.16l.08.1h0l.25-1.1c.26-1.12.51-2.24.78-3.36a.77.77,0,0,0-.06-.56A21.5,21.5,0,0,0,104.89,8,15.32,15.32,0,0,0,99.07,4L99,4c-.14-.05-.2-.07-.28,0h0L95.1,5.78l-.9.45.6.59,4,3.94,0,0h0Z"/><path class="cls-3" d="M120.66,48.86l-5.54-3.64a4.43,4.43,0,0,0-1-.53l0,0a2,2,0,0,0,0,.25,3.18,3.18,0,0,1-.27,2.52c-.17.24-.23.33-.51.14-1.54-1-3.09-2.07-4.64-3.09-.81-.54-.82-.54-1.48.22a23.22,23.22,0,0,0-2.74,4.3.47.47,0,0,0,0,.12,43.78,43.78,0,0,1,7.66,1.29,5.87,5.87,0,0,1,2.54,1.18,1.89,1.89,0,0,1,.53,2.36,5,5,0,0,1-.92,1.31c-.36.38-.71.78-1.12,1.23a3.86,3.86,0,0,0,1.26-.1c.56-.23,1.11-.48,1.67-.7.23-.09.29-.21.12-.39s-.1-.4.11-.58c.73-.62,1.45-1.26,2.17-1.88,1-.87,2-1.77,3-2.59.36-.28.28-.43.06-.67A4.75,4.75,0,0,0,120.66,48.86Z"/><path class="cls-2" d="M112.74,56.78l.68-.75.75-.83a4.85,4.85,0,0,0,.88-1.25,1.7,1.7,0,0,0-.47-2.15,5.83,5.83,0,0,0-2.46-1.14,43.35,43.35,0,0,0-7.63-1.28h-.18v-.18a.38.38,0,0,1,0-.21,23.61,23.61,0,0,1,2.77-4.33c.71-.83.83-.85,1.72-.26l1.05.69c1.2.8,2.41,1.59,3.6,2.4a.5.5,0,0,0,.13.07l.11-.15a2.92,2.92,0,0,0,.25-2.35,1.06,1.06,0,0,1,0-.23v-.16l.14-.14h.15a3.44,3.44,0,0,1,.85.45l.15.11c1.23.79,2.45,1.6,3.67,2.4l1.88,1.23a5,5,0,0,1,1,.82A.65.65,0,0,1,122,50a.68.68,0,0,1-.31.46c-.75.59-1.48,1.23-2.19,1.86l-.82.72-.69.6c-.49.43-1,.86-1.49,1.28,0,0-.16.14-.16.19a.26.26,0,0,0,.07.12.45.45,0,0,1,.14.39.47.47,0,0,1-.33.3l-1.08.46-.59.25a2.2,2.2,0,0,1-.88.11h-.44Zm.88-.41h0a1.76,1.76,0,0,0,.74-.08L115,56l1.09-.46.09,0,0,0a.57.57,0,0,1-.17-.4.73.73,0,0,1,.3-.45c.5-.42,1-.85,1.48-1.28l.69-.6c.27-.23.55-.47.82-.72.71-.62,1.44-1.27,2.2-1.87.17-.12.18-.18.18-.19s-.11-.17-.14-.2a5,5,0,0,0-.9-.77l-1.88-1.23L115,45.38l-.15-.1a3.74,3.74,0,0,0-.53-.32A3.24,3.24,0,0,1,114,47.6c-.17.25-.34.48-.76.19l-3.6-2.39-1-.69c-.69-.46-.69-.46-1.23.18A22.74,22.74,0,0,0,104.74,49a44.06,44.06,0,0,1,7.47,1.27,6,6,0,0,1,2.61,1.23,2.07,2.07,0,0,1,.58,2.58,5,5,0,0,1-1,1.36l-.74.82Z"/><path class="cls-3" d="M92.34,56.78c-.39.14-.67-.06-1-.17s-.65-.26-1-.39c-.13,0-.25-.11-.14-.27s0-.35-.18-.46l-4.84-2.76c-.18-.1-.36-.16-.11-.41a41.1,41.1,0,0,1,8.09-6.55,11.36,11.36,0,0,1,2.38-1.08.4.4,0,0,1,.42,0l7,4.24.27.19a24.16,24.16,0,0,0-2.73.06A16.14,16.14,0,0,0,95,50.45c-.79.37-1.54.82-2.3,1.24a4.79,4.79,0,0,0-.69.49c-1.56,1.26-1.64,2.68-.23,4.1Z"/><path class="cls-2" d="M92.08,57a1.47,1.47,0,0,1-.6-.15l-.17-.07q-.3-.1-.6-.24l-.38-.15a.45.45,0,0,1-.3-.26.34.34,0,0,1,.07-.3.44.44,0,0,0,.05-.09L90,55.66,87,54l-1.92-1.09c-.12-.06-.26-.14-.28-.3a.47.47,0,0,1,.18-.38,41.36,41.36,0,0,1,8.12-6.58,11.93,11.93,0,0,1,2.42-1.1.6.6,0,0,1,.58,0l5.51,3.35,1.5.9.13.09.67.46h-.64a23.68,23.68,0,0,0-2.7.06,16,16,0,0,0-5.46,1.25c-.63.29-1.24.63-1.84,1l-.45.26a3.63,3.63,0,0,0-.66.47A2.62,2.62,0,0,0,91,54.18a2.65,2.65,0,0,0,.94,2l.33.31.42.4-.29.1A1,1,0,0,1,92.08,57Zm-1.65-1h0l.4.16.58.24.18.07a1.81,1.81,0,0,0,.27.1l-.21-.2A2.63,2.63,0,0,1,91.93,52a5.69,5.69,0,0,1,.71-.5l.45-.26c.61-.34,1.23-.69,1.87-1A16.65,16.65,0,0,1,100.55,49c.68,0,1.35-.07,2.08-.07l-1.2-.73q-2.76-1.66-5.51-3.34c-.08,0-.12,0-.24,0a11.82,11.82,0,0,0-2.38,1.07,41.19,41.19,0,0,0-8,6.53l0,0,.06,0,0,0,1.88,1.07,3,1.69c.16.09.32.18.36.36A.49.49,0,0,1,90.43,56Z"/><path class="cls-3" d="M96.89,44.38a16,16,0,0,1,6.44.58,6.23,6.23,0,0,1,1.86,1c.18.14.21.24.09.44-.42.69-.82,1.38-1.21,2.08-.1.18-.17.24-.38.12l-6.67-4A.61.61,0,0,1,96.89,44.38Z"/><path class="cls-2" d="M103.87,48.82a.58.58,0,0,1-.28-.09L98.77,45.8l-1.85-1.11s-.07-.07-.11-.1l-.06-.08-.27-.28.39,0a15.86,15.86,0,0,1,6.52.58,6.62,6.62,0,0,1,1.92,1,.46.46,0,0,1,.13.69c-.44.72-.86,1.45-1.2,2.07-.07.11-.15.24-.29.27ZM97.4,44.53l1.56.95,4.83,2.93.07,0,0-.08c.35-.63.77-1.36,1.21-2.08a.35.35,0,0,0,0-.11s0,0-.09-.09a6.49,6.49,0,0,0-1.81-.94A15.26,15.26,0,0,0,97.4,44.53Z"/><path class="cls-3" d="M108.39,43.45c1,0,2-.06,3,0a5.31,5.31,0,0,1,1.8.7c.12.06.13.17.14.28.08.58.16,1.15.25,1.72a.84.84,0,0,1-.1.44c-.08.2-.17.21-.34.09l-4.71-3.13S108.44,43.52,108.39,43.45Z"/><path class="cls-2" d="M113.37,47a.5.5,0,0,1-.28-.11L110,44.79l-1.58-1a.6.6,0,0,1-.11-.12l-.26-.36h1.3c.74,0,1.44,0,2.15,0a4.24,4.24,0,0,1,1.49.54l.37.18a.47.47,0,0,1,.25.41v.08c.07.55.15,1.1.23,1.65a.88.88,0,0,1-.09.5v0a.41.41,0,0,1-.25.27Zm-4.45-3.34,1.25.83,3.13,2.09,0,0s0,0,0,0v0a.63.63,0,0,0,.07-.31c-.09-.55-.16-1.1-.24-1.65v-.06c0-.13,0-.13,0-.14l-.38-.19a4.18,4.18,0,0,0-1.35-.5,21,21,0,0,0-2.11,0Z"/><path class="cls-3" d="M107.72,43.45a9.92,9.92,0,0,0-2,2.14,5.9,5.9,0,0,1,.31-1.81.46.46,0,0,1,.48-.33Z"/><path class="cls-2" d="M105.55,46.2l0-.62a5.59,5.59,0,0,1,.33-1.87.66.66,0,0,1,.66-.45c.23,0,.47,0,.74,0h1l-.46.34a8.49,8.49,0,0,0-1.79,1.94Zm1-2.56a.27.27,0,0,0-.28.21A3.76,3.76,0,0,0,106,45a9.14,9.14,0,0,1,1.18-1.32h-.65Z"/><path class="cls-3" d="M114.12,44.73s0,0,0-.07l0,0Z"/><path class="cls-2" d="M114.19,44.93l-.17,0a.24.24,0,0,1-.12-.2.21.21,0,0,1,.11-.19l.12-.08.3.25Zm0-.23.06.12a.18.18,0,0,0,.06-.13.13.13,0,0,0,0-.11l-.07.1h0Zm-.17-.1.11.11Z"/><path class="cls-3" d="M107.8,22.3a4.5,4.5,0,0,1-.5-3.07,1.17,1.17,0,0,0-.38-1.18,31.84,31.84,0,0,0-4.21-3.66A41.18,41.18,0,0,0,97.86,11C95.61,9.8,93.31,8.66,91,7.46a1.23,1.23,0,0,0-.92-.1A17.33,17.33,0,0,0,85,9.57a.79.79,0,0,0-.34,1.08,2.57,2.57,0,0,0,.54.8,10.61,10.61,0,0,0,1.53,1.39,9.69,9.69,0,0,1,2.88,3.65,23.38,23.38,0,0,1,1.08,2.7c.6,1.78,1,3.62,1.78,5.36A9.12,9.12,0,0,0,96.07,29q1.29.78,2.64,1.44a7.63,7.63,0,0,0,5.12.71,12.79,12.79,0,0,0,2.63-.91c.5-.24.49-.36.27-.77a5.79,5.79,0,0,1-.49-1.21.31.31,0,0,0-.43-.25.5.5,0,0,0-.42.58,6.45,6.45,0,0,0,.14.88c.1.38-.2.31-.39.37s-.27-.09-.29-.27a21.13,21.13,0,0,1-.31-2.64,3.89,3.89,0,0,1,.6-2.93,1.14,1.14,0,0,0,0-1.52c-.21-.24-.66-.3-.69-.56s.21-.57.37-.91h-1c-.26,0-.38,0-.37-.33s.07-.38.35-.36.79,0,1.18,0c.2,0,.27-.11.34-.25a.27.27,0,0,0,0-.34c-.33-.42-.64-.86-.93-1.3a.68.68,0,0,0-.68-.33,8.83,8.83,0,0,0-1,.24,3.52,3.52,0,0,1,1-.93.69.69,0,0,1,1,.2c.33.38.66.77,1,1.17a1.25,1.25,0,0,0,1.29.61c-.2.29-.36.52-.62.6a.53.53,0,0,0-.4.67c0,.19,0,.32-.26.36s-.46.64-.26.79a1.82,1.82,0,0,1,.21,2.73,2.26,2.26,0,0,0-.43,1.38,10.83,10.83,0,0,0,.11,1.74c.25-.28.72-.18.68-.66A4.69,4.69,0,0,1,107.65,23C107.9,22.76,108,22.62,107.8,22.3Z"/><path class="cls-2" d="M102.28,31.54a8.43,8.43,0,0,1-3.66-.9c-.92-.45-1.81-.94-2.64-1.45a9.21,9.21,0,0,1-3.66-4.57,33.36,33.36,0,0,1-1.2-3.53c-.18-.61-.37-1.23-.58-1.84a23.37,23.37,0,0,0-1.07-2.68A9.42,9.42,0,0,0,86.65,13a10.46,10.46,0,0,1-1.56-1.41,2.88,2.88,0,0,1-.58-.86,1,1,0,0,1,.42-1.31,17.21,17.21,0,0,1,5.15-2.23,1.36,1.36,0,0,1,1,.12l2.72,1.4c1.34.7,2.74,1.42,4.1,2.15a35.13,35.13,0,0,1,4.14,2.83l.73.56a32,32,0,0,1,4.23,3.68,1.35,1.35,0,0,1,.43,1.36,4.27,4.27,0,0,0,.49,2.93h0a.67.67,0,0,1-.19.92,4.49,4.49,0,0,0-1.61,3.9.61.61,0,0,1-.46.64.64.64,0,0,0-.27.15l-.27.31-.06-.41A11.26,11.26,0,0,1,105,26a2.4,2.4,0,0,1,.47-1.48,1.63,1.63,0,0,0-.18-2.47.57.57,0,0,1-.12-.61c.06-.22.22-.49.48-.52a.19.19,0,0,0,.1,0,.27.27,0,0,0,0-.12.74.74,0,0,1,.53-.87.66.66,0,0,0,.29-.22,1.57,1.57,0,0,1-1-.69c-.31-.4-.64-.79-1-1.17a.51.51,0,0,0-.77-.15,2.09,2.09,0,0,0-.55.4,1.29,1.29,0,0,1,.4-.07.88.88,0,0,1,.84.41c.25.39.54.8.92,1.3a.47.47,0,0,1,0,.54.53.53,0,0,1-.51.35,4.86,4.86,0,0,0-.54,0h-.65a.22.22,0,0,0-.13,0,.35.35,0,0,0,0,.16c0,.11,0,.14,0,.14h.16q.33,0,.69,0h.62l-.12.27a3.24,3.24,0,0,1-.17.32,1.05,1.05,0,0,0-.19.49c0,.05.15.12.25.17a1.41,1.41,0,0,1,.4.29,1.32,1.32,0,0,1,.05,1.76,3.51,3.51,0,0,0-.57,2.65V27a23.88,23.88,0,0,0,.31,2.62v0s0,.06,0,.09h0a.57.57,0,0,1,.18,0l.1,0a.45.45,0,0,0,0-.08,3.64,3.64,0,0,1-.12-.71l0-.19a.7.7,0,0,1,.55-.79.5.5,0,0,1,.67.38,5.92,5.92,0,0,0,.47,1.17.74.74,0,0,1,.15.6c-.06.19-.23.31-.5.43a12.76,12.76,0,0,1-2.67.92A7.18,7.18,0,0,1,102.28,31.54Zm-11.8-24a1.76,1.76,0,0,0-.31,0,17,17,0,0,0-5,2.19.6.6,0,0,0-.27.85,2.29,2.29,0,0,0,.5.75,10.88,10.88,0,0,0,1.51,1.36,9.8,9.8,0,0,1,2.93,3.72,24.88,24.88,0,0,1,1.09,2.72c.21.61.4,1.24.58,1.85a35.2,35.2,0,0,0,1.19,3.5,8.87,8.87,0,0,0,3.5,4.39,29.78,29.78,0,0,0,2.62,1.43,7.38,7.38,0,0,0,5,.69,12.19,12.19,0,0,0,2.59-.89c.24-.12.3-.18.3-.2s-.08-.24-.12-.31a6.38,6.38,0,0,1-.5-1.24c0-.16-.09-.16-.2-.13-.29.09-.3.26-.28.38l0,.19a6.49,6.49,0,0,0,.11.66.48.48,0,0,1,0,.4.5.5,0,0,1-.37.18l-.11,0a.42.42,0,0,1-.35,0,.5.5,0,0,1-.19-.37,23.88,23.88,0,0,1-.31-2.7v-.15a3.87,3.87,0,0,1,.66-2.91.94.94,0,0,0,0-1.27.93.93,0,0,0-.29-.2c-.19-.1-.41-.22-.44-.46a1.14,1.14,0,0,1,.23-.72l0,0h0c-.24,0-.45,0-.67,0a.58.58,0,0,1-.44-.11.5.5,0,0,1-.13-.42.56.56,0,0,1,.14-.43.58.58,0,0,1,.41-.11h.62c.19,0,.38,0,.56,0s.09,0,.16-.15,0-.06,0-.13c-.39-.51-.69-.93-.94-1.32a.52.52,0,0,0-.51-.24,1.56,1.56,0,0,0-.49.11,3,3,0,0,1-.48.13l-.5.08.33-.39a3.59,3.59,0,0,1,1.1-1,.89.89,0,0,1,1.24.24c.32.39.65.78,1,1.19a1.08,1.08,0,0,0,1.11.54l.19,0v0a1,1,0,0,0-.34-1,31.93,31.93,0,0,0-4.18-3.64l-.74-.56a32.76,32.76,0,0,0-4.09-2.79C96.41,10.45,95,9.73,93.67,9c-.9-.47-1.81-.93-2.71-1.41A1.12,1.12,0,0,0,90.48,7.5ZM107,19.63a1.38,1.38,0,0,1-.65.58c-.24.07-.3.18-.27.47a.44.44,0,0,1-.43.57s-.08.05-.13.16a.42.42,0,0,0,0,.3,2,2,0,0,1,.24,3,2,2,0,0,0-.39,1.26,10,10,0,0,0,.07,1.41l.11-.05c.21-.09.24-.11.23-.26a4.93,4.93,0,0,1,1.73-4.22c.2-.17.23-.22.11-.46h0A4.8,4.8,0,0,1,107,19.63Z"/><path class="cls-3" d="M94.05,30.23l-3.84,1.22c-.25.09-.32-.07-.44-.2L84.65,25.4q-3.39-3.87-6.77-7.73c-.11-.12-.21-.25-.38-.45,1.72.35,3.4.1,5.06.34a4.46,4.46,0,0,1,2.38,1.09.46.46,0,0,1,.17.48,3.79,3.79,0,0,0,1.12,3.39,2.08,2.08,0,0,0,1.8.64,1.09,1.09,0,0,0,1.08-1.08,1.94,1.94,0,0,0,0-.76c0-.16,0-.47-.33-.38s-.45.15-.36.5a.78.78,0,0,1-.23.92,1,1,0,0,1-1.08-.06,3.11,3.11,0,0,1-1.28-3A2.33,2.33,0,0,1,88,17.39c.65-.08.92.09,1.15.72a4.21,4.21,0,0,1,.16,1.46c0,.13,0,.29.15.34a1.66,1.66,0,0,1,1,.88,10.72,10.72,0,0,1,1.69,5.74c0,.59,0,1.19,0,1.78a1.34,1.34,0,0,0,.63,1.13C93.17,29.7,93.58,29.94,94.05,30.23Z"/><path class="cls-2" d="M90.08,31.67a.51.51,0,0,1-.4-.24l-.05-.06L77.74,17.8a3.45,3.45,0,0,1-.23-.28l-.5-.6.53.11a13.74,13.74,0,0,0,2.77.22,15.78,15.78,0,0,1,2.27.12,4.74,4.74,0,0,1,2.48,1.14.66.66,0,0,1,.24.65,3.57,3.57,0,0,0,1.06,3.23A1.94,1.94,0,0,0,88,23a.92.92,0,0,0,.91-.92,1.69,1.69,0,0,0,0-.68,1.35,1.35,0,0,1,0-.18.25.25,0,0,0,0-.09h-.07s-.2.05-.23.1a.28.28,0,0,0,0,.17,1,1,0,0,1-.32,1.12,1.16,1.16,0,0,1-1.27,0,3.29,3.29,0,0,1-1.38-3.22,2.52,2.52,0,0,1,2.36-2,1.07,1.07,0,0,1,1.34.83,4.18,4.18,0,0,1,.18,1.53v.07s0,.08,0,.09a1.8,1.8,0,0,1,1.16,1,11.05,11.05,0,0,1,1.72,5.85v.25c0,.49,0,1,0,1.51a1.16,1.16,0,0,0,.54,1l.87.54.76.47-1.43.45-2.8.89A.46.46,0,0,1,90.08,31.67ZM78,17.49l0,.06,11.9,13.57,0,.07c.09.11.09.11.18.09.93-.31,1.85-.6,2.81-.9l.64-.2-.06,0-.87-.54A1.55,1.55,0,0,1,92,28.32c0-.52,0-1,0-1.55v-.24a10.78,10.78,0,0,0-1.67-5.65,1.51,1.51,0,0,0-.92-.79.4.4,0,0,1-.3-.47v-.06a4,4,0,0,0-.15-1.39c-.19-.54-.39-.66-.94-.59a2.15,2.15,0,0,0-2,1.74,3,3,0,0,0,1.19,2.81c.38.21.65.23.88.07a.58.58,0,0,0,.16-.71.59.59,0,0,1,0-.46.67.67,0,0,1,.46-.27.39.39,0,0,1,.55.41.25.25,0,0,0,0,.09,2.11,2.11,0,0,1,.06.83,1.29,1.29,0,0,1-1.25,1.26,2.28,2.28,0,0,1-2-.7,4,4,0,0,1-1.16-3.55.3.3,0,0,0-.12-.31,4.32,4.32,0,0,0-2.28-1,16.3,16.3,0,0,0-2.23-.13A16.8,16.8,0,0,1,78,17.49Z"/><path class="cls-3" d="M108.52,12.79a21,21,0,0,0-3.5-5,15.53,15.53,0,0,0-5.89-4c-.16-.06-.3-.14-.48,0L93.88,6.18l4.82,4.71a4.3,4.3,0,0,0,.77.6l.27.16c-.08,0,.29.08.21.06l.09.07a35.94,35.94,0,0,1,7.12,6.13c.09.1.15.24.3.27s.08-.12.09-.19c.35-1.51.69-3,1-4.52A.94.94,0,0,0,108.52,12.79Z"/><path class="cls-2" d="M107.49,18.37h-.06a.56.56,0,0,1-.35-.25L107,18a35.46,35.46,0,0,0-7.08-6.1l-.07,0h0a.61.61,0,0,1-.27-.1l-.21-.13a4.83,4.83,0,0,1-.81-.62L93.75,6.31l-.19-.18,1.37-.69,3.63-1.82a.64.64,0,0,1,.58,0l.06,0a15.69,15.69,0,0,1,6,4,21.44,21.44,0,0,1,3.52,5h0a1.09,1.09,0,0,1,.1.81c-.27,1.12-.52,2.24-.78,3.36L107.74,18a.37.37,0,0,1-.19.31Zm-7.32-6.74a36.34,36.34,0,0,1,7.13,6.15l.08.1h0l.25-1.1c.26-1.12.51-2.24.78-3.36a.77.77,0,0,0-.06-.56h0A21.5,21.5,0,0,0,104.89,8,15.32,15.32,0,0,0,99.07,4L99,4c-.14-.05-.2-.07-.28,0L95.1,5.78l-.9.45,4.63,4.53a4.51,4.51,0,0,0,.72.56l.24.14.39.12Z"/></g><g id="_6oTy15.tif-2" data-name="6oTy15.tif"><path class="cls-2" d="M117.11,36.71a1.09,1.09,0,0,0,.26,0,.63.63,0,0,1,0-.24.42.42,0,0,1,0-.12v0a.47.47,0,0,1,0-.17.57.57,0,0,1,0-.26,5.26,5.26,0,0,1,0-.89.61.61,0,0,1,0-.4.56.56,0,0,1,0-.34v0a.39.39,0,0,1,0-.15c-.14,0-.19,0-.16-.2a11.12,11.12,0,0,0,.13-2.58,21.9,21.9,0,0,1,0-3.24c.11-1,.23-2,.33-2.93a4.36,4.36,0,0,0,0-1.61.46.46,0,0,0-.67-.37,1.13,1.13,0,0,1-.83-.05l-.75-.33a1.07,1.07,0,0,0-1.53.5,2.46,2.46,0,0,0-.3,1.35,1.31,1.31,0,0,1-.34,1.07,2.33,2.33,0,0,0-.59,2.52,12.43,12.43,0,0,0,1.31,3,10.74,10.74,0,0,1,1.05,2.41c.1.4.1.42-.28.39a5.46,5.46,0,0,1,0,1.34,5.2,5.2,0,0,1-.2,3.05,6.42,6.42,0,0,1,.6.42,6.32,6.32,0,0,1,.77-.06,5.71,5.71,0,0,1,.73,0,8.46,8.46,0,0,1,.88-.08c0-.1,0-4.39-.07-4.46a20.77,20.77,0,0,1-.26,2.44h-1.79c-.25,0-.28-.08-.28-.29,0-1.14-.19-.37-.2-1.51,0-.23.07-.29.29-.28.57,0,1.15,0,1.72,0,.23,0,.32.05.31.3C117.1,35.46,117.11,36.08,117.11,36.71Zm-.38-9.43a22.8,22.8,0,0,0-.06,4.13,12,12,0,0,1-.08,2.16c0,.19-.11.25-.31.26-.66,0-.66,0-.83-.61a12.24,12.24,0,0,0-1-2.34,12.76,12.76,0,0,1-1.26-2.79,1.91,1.91,0,0,1,.48-2.11,1.45,1.45,0,0,0,.44-1.08c0-.32,0-.63.06-.94.09-.65.54-.88,1.15-.62a2.55,2.55,0,0,0,1.59.38c.16,0,.16.06.16.16s0,.36,0,.54A27.43,27.43,0,0,1,116.73,27.28Z"/><path class="cls-2" d="M115,38.93l-.07,0a3.57,3.57,0,0,0-.58-.4l-.14-.08.06-.15a5,5,0,0,0,.2-3v-.06a5.14,5.14,0,0,0,0-1.3l0-.23.23,0h.13l0-.16a10,10,0,0,0-1-2.25l-.27-.49a11.3,11.3,0,0,1-1.13-2.64,2.53,2.53,0,0,1,.66-2.7,1.17,1.17,0,0,0,.27-.93,2.62,2.62,0,0,1,.33-1.45,1.25,1.25,0,0,1,1.77-.57l.38.17.36.15a1,1,0,0,0,.7.05.73.73,0,0,1,.57,0,.72.72,0,0,1,.34.48,4.54,4.54,0,0,1,0,1.68c-.1,1-.22,1.94-.33,2.88V28a14.68,14.68,0,0,0,0,2.39l0,.82a11.88,11.88,0,0,1-.12,2.6h.13V34a.56.56,0,0,0,0,.1l0,.11v.05h0a23.23,23.23,0,0,1,.09,2.49l0,.05h0c0,1,0,1.81,0,1.83v.17h-.18a7.89,7.89,0,0,0-.85.08h-.05a5,5,0,0,0-1.45,0Zm-.32-.7a4.85,4.85,0,0,1,.43.3,5.33,5.33,0,0,1,1.44,0c.19,0,.47-.06.7-.07V36.89h-.29v-.08h-.49c-.39,0-.77,0-1.16,0a.46.46,0,0,1-.34-.09A5.12,5.12,0,0,1,114.64,38.23Zm.55-1.8h.07c.39,0,.78,0,1.17,0h.49v-.25q0-.68,0-1.35c0-.06,0-.09,0-.1h-.11c-.55,0-1.13,0-1.72,0H115a.54.54,0,0,0,0,.08c0,.52,0,.61.09.67a1.65,1.65,0,0,1,.12.85v.11Zm1.64-2.08a.55.55,0,0,1,.28.06v0s0-.08,0-.11v-.07a.25.25,0,0,1-.12-.07.38.38,0,0,1-.05-.32,11.31,11.31,0,0,0,.12-2.54c0-.28,0-.55,0-.82a14.34,14.34,0,0,1,0-2.45v0c.12-.94.23-1.92.33-2.88a4.19,4.19,0,0,0,0-1.54.41.41,0,0,0-.15-.25.39.39,0,0,0-.28,0,1.34,1.34,0,0,1-1-.06l-.37-.16-.38-.16a.89.89,0,0,0-1.3.42,2.2,2.2,0,0,0-.27,1.25,1.49,1.49,0,0,1-.4,1.21,2.14,2.14,0,0,0-.54,2.34,10.39,10.39,0,0,0,1.1,2.54l.26.49a10.13,10.13,0,0,1,1,2.34c.07.25.1.4,0,.52a.33.33,0,0,1-.25.11,2.17,2.17,0,0,1,0,.26.72.72,0,0,1,.25,0c.59,0,1.16,0,1.7,0Zm-.71-.33c-.59,0-.67-.1-.85-.74a12.24,12.24,0,0,0-1-2.31l-.2-.37A10.44,10.44,0,0,1,113,28.14a2.09,2.09,0,0,1,.54-2.31,1.24,1.24,0,0,0,.37-.94v-.11a7.91,7.91,0,0,1,.06-.84,1,1,0,0,1,.46-.79,1,1,0,0,1,.94,0l.19.09a2.05,2.05,0,0,0,1.29.27.3.3,0,0,1,.39.33c0,.14,0,.27,0,.4v.16a23.67,23.67,0,0,1-.3,2.89h0a19.12,19.12,0,0,0-.08,3.38l0,.72a12.59,12.59,0,0,1-.08,2.19.45.45,0,0,1-.49.42Zm-1.31-10.59a.46.46,0,0,0-.23.05.65.65,0,0,0-.27.51,7.18,7.18,0,0,0-.06.8v.11a1.66,1.66,0,0,1-.5,1.22,1.7,1.7,0,0,0-.43,1.93,10.7,10.7,0,0,0,1.05,2.37l.2.38a12.33,12.33,0,0,1,1.06,2.37c.13.48.13.48.63.47.1,0,.12,0,.12,0h0s0,0,0-.08a11.71,11.71,0,0,0,.08-2.12l0-.72a19,19,0,0,1,.09-3.45h0a27.93,27.93,0,0,0,.3-2.84v-.5a2.44,2.44,0,0,1-1.47-.31l-.18-.08A1,1,0,0,0,114.81,23.43Z"/><path class="cls-3" d="M117.11,35.94c0-.4,0-.81,0-1.21,0-.16-.06-.19-.25-.19h-1.35c-.18,0-.24,0-.24.18,0,.73,0,1.47,0,2.21,0,.13,0,.19.22.19h1.42c.08,0,.19,0,.21-.08C117.11,36.67,117.11,36.3,117.11,35.94Z"/><path class="cls-2" d="M115.47,37.31a.41.41,0,0,1-.29-.1.38.38,0,0,1-.1-.28c0-.74,0-1.47,0-2.21a.36.36,0,0,1,.1-.27.44.44,0,0,1,.33-.1h1.35a.51.51,0,0,1,.35.1.38.38,0,0,1,.09.29c0,.28,0,.57,0,.86V37c0,.15-.1.29-.36.27h-1.47Zm0-.38h1.47V35.6c0-.29,0-.58,0-.87h0c-.44,0-.9,0-1.37,0h0C115.47,35.48,115.47,36.21,115.46,36.93Z"/><path class="cls-3" d="M117,24.42c0-.18,0-.36,0-.54s0-.2-.16-.16a2.61,2.61,0,0,1-1.59-.37c-.61-.27-1.06,0-1.15.61,0,.31-.05.62-.06.94a1.45,1.45,0,0,1-.44,1.08,1.91,1.91,0,0,0-.48,2.11,12.76,12.76,0,0,0,1.26,2.79,12.24,12.24,0,0,1,1,2.34c.17.63.17.62.83.61.2,0,.28-.07.31-.26a12,12,0,0,0,.08-2.16,22.8,22.8,0,0,1,.06-4.13A27.43,27.43,0,0,0,117,24.42Z"/><path class="cls-2" d="M116.12,34c-.59,0-.67-.1-.85-.74a12.24,12.24,0,0,0-1-2.31l-.2-.37A10.44,10.44,0,0,1,113,28.14a2.09,2.09,0,0,1,.54-2.31,1.24,1.24,0,0,0,.37-.94v-.11a7.91,7.91,0,0,1,.06-.84,1,1,0,0,1,.46-.79,1,1,0,0,1,.94,0l.19.09a2.05,2.05,0,0,0,1.29.27.3.3,0,0,1,.39.33c0,.14,0,.27,0,.4v.17a23.73,23.73,0,0,1-.3,2.88,19.12,19.12,0,0,0-.08,3.38l0,.72a12.55,12.55,0,0,1-.08,2.19.45.45,0,0,1-.49.42Zm-1.31-10.59a.46.46,0,0,0-.23.05.65.65,0,0,0-.27.51,7,7,0,0,0-.06.8v.11a1.66,1.66,0,0,1-.5,1.22,1.7,1.7,0,0,0-.43,1.93,10.7,10.7,0,0,0,1.05,2.37l.2.38a12.06,12.06,0,0,1,1.06,2.37c.13.48.13.48.63.47.1,0,.12,0,.12,0h0s0,0,0-.08a11.71,11.71,0,0,0,.08-2.12l0-.72a19,19,0,0,1,.09-3.45,27.64,27.64,0,0,0,.3-2.84v-.5a2.42,2.42,0,0,1-1.47-.31l-.18-.08A.92.92,0,0,0,114.81,23.43Z"/></g><path class="cls-4" d="M127.71,32.87a.4.4,0,0,1-.49.35.38.38,0,0,1-.32-.5.37.37,0,0,1,.46-.31A.38.38,0,0,1,127.71,32.87Z"/><path class="cls-2" d="M127.32,33.42h-.14a.58.58,0,0,1-.47-.73.56.56,0,0,1,.68-.46.58.58,0,0,1,.51.66v0A.59.59,0,0,1,127.32,33.42Zm0-.83c-.1,0-.16,0-.19.17a.26.26,0,0,0,0,.19.27.27,0,0,0,.15.09c.1,0,.22,0,.28-.2s-.08-.23-.2-.25Z"/><path class="cls-4" d="M127.1,33.65a.39.39,0,0,1,.35.49.41.41,0,0,1-.81-.12A.39.39,0,0,1,127.1,33.65Z"/><path class="cls-2" d="M127.07,34.68l-.14,0a.56.56,0,0,1-.48-.67.58.58,0,0,1,.66-.53h0a.58.58,0,0,1,.5.7.59.59,0,0,1-.24.41A.64.64,0,0,1,127.07,34.68Zm0-.84c-.14,0-.2.06-.22.2s0,.23.17.25a.23.23,0,0,0,.18,0,.24.24,0,0,0,.09-.16c0-.13,0-.23-.2-.27Z"/><path class="cls-4" d="M127.2,35.42a.39.39,0,0,1-.51.31.37.37,0,0,1-.3-.47.39.39,0,0,1,.49-.34A.4.4,0,0,1,127.2,35.42Z"/><path class="cls-2" d="M126.82,35.94l-.17,0a.55.55,0,0,1-.44-.69.57.57,0,0,1,.24-.41.56.56,0,0,1,.46-.08.58.58,0,0,1,.48.71v0A.59.59,0,0,1,126.82,35.94Zm0-.84a.19.19,0,0,0-.1,0,.24.24,0,0,0-.09.17.18.18,0,0,0,.16.25c.09,0,.2,0,.28-.17s-.08-.25-.18-.27Z"/><path class="cls-4" d="M118.77,35.3c0,.28-.17.44-.42.44a.38.38,0,0,1-.41-.43.37.37,0,0,1,.39-.4A.4.4,0,0,1,118.77,35.3Z"/><path class="cls-2" d="M118.35,35.93h0a.58.58,0,0,1-.6-.63.57.57,0,0,1,.57-.58.58.58,0,0,1,.63.55v0A.6.6,0,0,1,118.35,35.93Zm0-.83h0c-.15,0-.21.07-.21.22a.19.19,0,0,0,.05.17.24.24,0,0,0,.17.06c.1,0,.21,0,.23-.24S118.47,35.1,118.36,35.1Z"/><path class="cls-4" d="M118.31,36.18c.29,0,.44.15.45.41a.38.38,0,0,1-.41.43.38.38,0,0,1-.41-.39A.4.4,0,0,1,118.31,36.18Z"/><path class="cls-2" d="M118.34,37.21a.61.61,0,0,1,0-1.21h0a.57.57,0,0,1,.63.59.6.6,0,0,1-.16.44.57.57,0,0,1-.44.18Zm0-.84c-.15,0-.21.1-.2.25a.19.19,0,0,0,.21.21.25.25,0,0,0,.18-.06.23.23,0,0,0,0-.17C118.57,36.47,118.52,36.38,118.33,36.37Z"/><path class="cls-4" d="M118.76,37.9a.4.4,0,0,1-.44.41.37.37,0,0,1-.38-.41.38.38,0,0,1,.41-.43A.39.39,0,0,1,118.76,37.9Z"/><path class="cls-2" d="M118.35,38.5h0a.56.56,0,0,1-.57-.6.62.62,0,0,1,.16-.45.6.6,0,0,1,.44-.16.58.58,0,0,1,.6.6v0A.58.58,0,0,1,118.35,38.5Zm0-.84a.2.2,0,0,0-.22.24c0,.15.06.21.2.22s.21,0,.25-.22S118.45,37.66,118.35,37.66Z"/><path class="cls-5" d="M72.25,33.59l.35,1.48a1.81,1.81,0,0,1-.27.1c-1.14.37-2.27.75-3.41,1.08a1.48,1.48,0,0,0-1.16,1.45c-.05.77,0,1.56,0,2.34.06,2,.14,4,.2,6a1.35,1.35,0,0,1-1.06,1.56,5,5,0,0,1-3.25.29,1.86,1.86,0,0,1-1.41-2.35c.51-2.31,1-4.63,1.54-6.94a4.35,4.35,0,0,1,3.26-3.48c1.59-.45,3.18-.92,4.78-1.39Z"/><path class="cls-5" d="M110.71,25.33l-1-.57c.54-.17,8.2-2.36,8.73-2.53l5-1.63c.65-.21,1.19.17,1.12.8a.77.77,0,0,1-.63.7l-5.16,1.65c-.42.14-4.73,1.29-6.59,1.83A1.91,1.91,0,0,1,110.71,25.33Z"/><path class="cls-5" d="M73.13,34.75l-.33-1.28c.35.3.68.14,1,0C78,32.37,82.2,31.25,86.38,30.1c.33-.09.56-.07.75.21a3,3,0,0,0,.31.32l-.36.11L73.67,34.38A1.86,1.86,0,0,0,73.13,34.75Z"/><g id="_6oTy15.tif-3" data-name="6oTy15.tif"><path class="cls-2" d="M117,22.55a.92.92,0,0,1,.48,1,2.43,2.43,0,0,0,0,.27,4.3,4.3,0,0,1,.34,1L118,25a16.09,16.09,0,0,0,1.28,1.19,6.77,6.77,0,0,0,2.92,1.49,2.49,2.49,0,0,1,2.26,2.68c-.35-.12-.44,0-.48.32-.15,1.32-.33,2.63-.48,4,0,.18-.23.45.2.53.07,0,0,.14,0,.21a5.48,5.48,0,0,1-1.07,2.26,2.19,2.19,0,0,1-1,.68,15.85,15.85,0,0,1-4.36.77c0,.61,0,1.21,0,1.82a31.33,31.33,0,0,1,7.51-.59c.38,0,.53,0,.6-.43a41.74,41.74,0,0,1,.73-4.66,27.49,27.49,0,0,0,.6-4.38c0-.08,0-.21-.1-.2-.56,0-.41-.34-.38-.6a7.15,7.15,0,0,0-1.3-5.31c-.8-1.1-1.47-2.28-2.15-3.44-.19-.31-.39-.63-.61-.92a1.44,1.44,0,0,0-1.86-.57c-.91.31-1.79.67-2.69,1a4,4,0,0,0-.61.32C116.2,21.64,116.18,22,117,22.55ZM125.83,32l-.11.89c-.07.53-.14,1-.2,1.58,0,.19-.09.24-.32.22-1-.09-1-.08-.93-1s.21-1.6.29-2.4c0-.24.12-.3.4-.27C125.94,31.16,125.94,31.15,125.83,32Zm-8.52-10.37a5.94,5.94,0,0,1,1.11-.52c.69-.26,1.38-.52,2.09-.76a.77.77,0,0,1,1.07.33c.2.28.38.57.56.86.69,1.19,1.38,2.38,2.19,3.51a6.4,6.4,0,0,1,1.22,4.61c0,.2,0,.4-.08.6s0,.19-.16.17-.12-.08-.14-.16-.09-.42-.14-.63a3,3,0,0,0-2.71-2.6,5.19,5.19,0,0,1-2.5-1.24,15.2,15.2,0,0,1-1.27-1.14,1.35,1.35,0,0,1-.43-1.15,1.33,1.33,0,0,0-.79-1.48C117,21.91,117.09,21.8,117.31,21.66Z"/><path class="cls-2" d="M117,41.13v-.24c0-.6,0-1.21,0-1.81V38.9h.17a15.25,15.25,0,0,0,4.31-.76,2,2,0,0,0,.89-.63,5.23,5.23,0,0,0,1-2.17v0a.45.45,0,0,1-.24-.18.5.5,0,0,1,0-.43.44.44,0,0,0,0-.1c.07-.61.15-1.21.23-1.82s.17-1.41.25-2.12a.61.61,0,0,1,.23-.47.39.39,0,0,1,.25-.06,2.31,2.31,0,0,0-2.11-2.27,6.82,6.82,0,0,1-3-1.53,15.85,15.85,0,0,1-1.29-1.2,1.33,1.33,0,0,1-.19-.24l-.05-.08a4.21,4.21,0,0,0-.33-.94l0-.12a2.09,2.09,0,0,1,0-.25.72.72,0,0,0-.4-.79h0c-.28-.19-.66-.49-.66-.87s.39-.67.68-.86a5.32,5.32,0,0,1,.64-.34l.41-.15c.74-.3,1.52-.6,2.29-.86a1.62,1.62,0,0,1,2.07.62,10,10,0,0,1,.62.95l.29.5c.58,1,1.17,2,1.85,2.92a7.37,7.37,0,0,1,1.34,5.45.52.52,0,0,1,0,.11c0,.07,0,.2,0,.23s0,0,.22,0a.33.33,0,0,1,.23.09.35.35,0,0,1,.06.3c-.06.47-.1.91-.14,1.36a15.94,15.94,0,0,1-.47,3.07,17.83,17.83,0,0,0-.49,2.86c-.06.58-.13,1.19-.24,1.79s-.35.6-.79.58a31.26,31.26,0,0,0-7.46.58Zm.42-1.87,0,1.4a31.86,31.86,0,0,1,7.31-.53c.33,0,.36,0,.41-.28.11-.58.17-1.18.24-1.76a15.8,15.8,0,0,1,.5-2.92,15.87,15.87,0,0,0,.46-3c0-.45.08-.9.13-1.35a.55.55,0,0,1-.42-.17.6.6,0,0,1-.07-.53s0-.07,0-.1a6.91,6.91,0,0,0-1.28-5.18c-.69-.95-1.28-2-1.86-2.95l-.3-.5a9.11,9.11,0,0,0-.59-.91,1.26,1.26,0,0,0-1.64-.5c-.77.27-1.54.57-2.29.86l-.4.15a3.32,3.32,0,0,0-.57.31c-.34.21-.51.4-.51.54s.17.33.49.55a1.13,1.13,0,0,1,.57,1.16.54.54,0,0,0,0,.18h0a5.85,5.85,0,0,1,.33.94,1.57,1.57,0,0,0,.15.19A15.12,15.12,0,0,0,119.37,26a6.42,6.42,0,0,0,2.84,1.45,2.69,2.69,0,0,1,2.41,2.87v.26l-.25-.08c-.14-.05-.18,0-.18,0s0,0,0,.19c-.08.71-.17,1.42-.26,2.13s-.15,1.21-.22,1.82c0,.05,0,.1,0,.16s0,.11,0,.13,0,0,.12,0h.08l.07.09a.37.37,0,0,1,0,.31,5.58,5.58,0,0,1-1.12,2.36,2.29,2.29,0,0,1-1,.74A15.92,15.92,0,0,1,117.46,39.26Zm7.82-4.34h-.09c-.62,0-.89-.08-1-.28s-.12-.44-.06-1l.08-.66c.08-.58.15-1.16.22-1.74a.51.51,0,0,1,.16-.36.57.57,0,0,1,.44-.07c.57.07.83.1,1,.29s.12.43.06.91h0l-.17,1.33c0,.38-.1.76-.14,1.14A.39.39,0,0,1,125.28,34.92Zm-.51-3.7s0,0,0,.1c-.06.59-.14,1.17-.21,1.75l-.09.66a1.68,1.68,0,0,0,0,.67,1.88,1.88,0,0,0,.77.13h.13v-.05c0-.39.09-.77.14-1.15l.17-1.33.19,0-.19,0a1.79,1.79,0,0,0,0-.63,1.9,1.9,0,0,0-.7-.15A.46.46,0,0,0,124.77,31.22Zm.57-.57h0a.33.33,0,0,1-.3-.31c0-.11,0-.21-.07-.32a3,3,0,0,1-.07-.32,2.87,2.87,0,0,0-2.56-2.45A5.27,5.27,0,0,1,119.7,26c-.41-.35-.86-.73-1.28-1.15a1.5,1.5,0,0,1-.48-1.32,1.15,1.15,0,0,0-.7-1.28c-.13-.06-.3-.17-.3-.35a.46.46,0,0,1,.27-.38h0a5.64,5.64,0,0,1,1.14-.53l.19-.07c.62-.23,1.26-.48,1.9-.7a1,1,0,0,1,1.29.4c.22.3.41.61.57.87l.18.31c.62,1.06,1.27,2.16,2,3.19a6.6,6.6,0,0,1,1.26,4.74l0,.17-.06.44C125.62,30.6,125.46,30.65,125.34,30.65Zm-8-8.79.06,0a1.53,1.53,0,0,1,.9,1.67,1.14,1.14,0,0,0,.38,1A16.25,16.25,0,0,0,120,25.69a4.8,4.8,0,0,0,2.4,1.19,3.25,3.25,0,0,1,2.87,2.75c0,.1,0,.2.07.31a.5.5,0,0,0,0,.12l0-.23,0-.16a6.24,6.24,0,0,0-1.19-4.48c-.74-1-1.39-2.15-2-3.22l-.18-.3a9.77,9.77,0,0,0-.54-.85c-.27-.37-.42-.41-.86-.26-.64.22-1.28.46-1.9.69l-.19.07a5.84,5.84,0,0,0-1.07.5h0A.15.15,0,0,0,117.35,21.86Z"/><path class="cls-3" d="M117.33,22.06a1.33,1.33,0,0,1,.79,1.48,1.35,1.35,0,0,0,.43,1.15,15.2,15.2,0,0,0,1.27,1.14,5.19,5.19,0,0,0,2.5,1.24,3,3,0,0,1,2.71,2.6c0,.21.1.42.14.63s0,.15.14.16.15-.09.16-.17,0-.4.08-.6a6.4,6.4,0,0,0-1.22-4.61c-.81-1.13-1.5-2.32-2.19-3.51-.18-.29-.36-.58-.56-.86a.77.77,0,0,0-1.07-.33c-.71.24-1.4.5-2.09.76a5.94,5.94,0,0,0-1.11.52C117.09,21.8,117,21.91,117.33,22.06Z"/><path class="cls-2" d="M125.34,30.65h0a.33.33,0,0,1-.3-.31c0-.11,0-.21-.07-.32a3,3,0,0,1-.07-.32,2.87,2.87,0,0,0-2.56-2.45A5.27,5.27,0,0,1,119.7,26c-.41-.35-.86-.73-1.28-1.15a1.5,1.5,0,0,1-.48-1.32,1.15,1.15,0,0,0-.7-1.28c-.13-.06-.3-.17-.3-.35a.46.46,0,0,1,.27-.38,5.64,5.64,0,0,1,1.14-.53l.19-.07c.62-.23,1.26-.48,1.9-.7a1,1,0,0,1,1.29.4c.22.3.41.61.57.87l.18.31c.62,1.06,1.27,2.16,2,3.19a6.6,6.6,0,0,1,1.26,4.74l0,.17-.06.44C125.62,30.6,125.46,30.65,125.34,30.65Zm-8-8.79.06,0h0a1.53,1.53,0,0,1,.9,1.67,1.14,1.14,0,0,0,.38,1A16.25,16.25,0,0,0,120,25.69a4.8,4.8,0,0,0,2.4,1.19,3.25,3.25,0,0,1,2.87,2.75c0,.1,0,.2.07.31a.5.5,0,0,0,0,.12l0-.23,0-.16a6.24,6.24,0,0,0-1.19-4.48c-.74-1-1.39-2.15-2-3.22l-.18-.3a9.77,9.77,0,0,0-.54-.85c-.27-.37-.42-.41-.86-.26-.64.22-1.28.46-1.9.69l-.19.07a5.84,5.84,0,0,0-1.07.5A.15.15,0,0,0,117.35,21.86Z"/><path class="cls-3" d="M125.2,34.72c.23,0,.3,0,.32-.22.06-.53.13-1,.2-1.58l.11-.89c.11-.88.11-.87-.87-1-.28,0-.37,0-.4.27-.08.8-.19,1.6-.29,2.4S124.15,34.63,125.2,34.72Z"/><path class="cls-2" d="M125.28,34.92h-.09v-.19l0,.19c-.6,0-.87-.08-1-.28s-.12-.44-.06-1l.08-.66c.08-.58.15-1.16.22-1.74a.51.51,0,0,1,.16-.36.57.57,0,0,1,.44-.07c.57.07.83.1,1,.29s.12.43.06.91l-.17,1.33c0,.38-.1.76-.14,1.14A.39.39,0,0,1,125.28,34.92Zm-.51-3.7s0,0,0,.1c-.06.59-.14,1.17-.21,1.75l-.09.66a1.68,1.68,0,0,0,0,.67,1.88,1.88,0,0,0,.77.13h.13v-.05c0-.39.09-.77.14-1.15l.17-1.33a1.79,1.79,0,0,0,0-.63,1.9,1.9,0,0,0-.7-.15Z"/></g><path class="cls-5" d="M110.4,25.47a1,1,0,0,0-.81-.06l-2.49.68a.8.8,0,0,0,.14.79l3.05-.83c.11,0,.74-.15.89-.2A3.14,3.14,0,0,0,110.4,25.47Z"/><line class="cls-6" x1="10.17" y1="64.95" x2="192.95" y2="64.95"/></g></g></svg>