<svg xmlns="http://www.w3.org/2000/svg" viewBox="0 0 29.42 52.83"><defs><style>.cls-1{fill:#0d8643;}.cls-2{fill:#fff;}</style></defs><g id="Layer_2" data-name="Layer 2"><g id="Layer_1-2" data-name="Layer 1"><path class="cls-1" d="M22.68,24.39c1.84.69,1.83.73,1.52,2.6a21.66,21.66,0,0,1-3,7.32c-1.27,2.19-2.63,4.33-3.91,6.52s-1.38,4.73-.92,7.52c1.94-3.21,4.82-4.38,8.26-4.85a17.5,17.5,0,0,0-2.09,2,9.18,9.18,0,0,0-1.26,2.57,6,6,0,0,1,6.23-1.15c-1.57.61-3,1.25-3.18,3.21,1.75-1,3.32-.74,5.11.44a8.53,8.53,0,0,0-5.41,2,2,2,0,0,1-1.12.28c-5.89,0-11.78,0-17.67,0a1.81,1.81,0,0,1-1.29-.58A5.14,5.14,0,0,0,0,50a4.42,4.42,0,0,1,4.3,0l.24-.33L1.31,46.5a7.74,7.74,0,0,1,5.37,2.28c.43-2.46-.52-4.38-1.91-6.34A12.36,12.36,0,0,1,12,46.92a13,13,0,0,0-1.09-7.54c-1-2.08-2.41-4-3.51-6.06a43.34,43.34,0,0,1-2.78-6c-.73-2.12-.46-2.35,1.81-3C2.55,21,.65,16.9,1.23,11.84A12.86,12.86,0,0,1,6.15,3,13.42,13.42,0,0,1,24.68,4.57C29,9.33,30,18.31,22.68,24.39Zm3.88-10.84a12,12,0,1,0-12,11.92A12,12,0,0,0,26.56,13.55ZM11.15,26.72C9.75,26,8.6,25.39,7.38,24.91c-.39-.16-1,.11-1.44.19l0,.42C7.45,26.55,9.23,26.43,11.15,26.72Zm7.24-.17c1.49-.25,3.1,0,4.36-1.26-.35-.23-.77-.45-1.05-.34C20.57,25.43,19.49,26,18.39,26.55Z"/><path class="cls-2" d="M26.56,13.55A12,12,0,1,1,14.65,1.49,12,12,0,0,1,26.56,13.55ZM8.15,6h-.5c-.28.45-.81.92-.78,1.35s.73,1.07,1,1A1.63,1.63,0,0,0,9,7.32C9.06,6.93,8.46,6.46,8.15,6ZM11.6,4.94l-.51,0c-.32.42-.92.88-.87,1.26a1.57,1.57,0,0,0,1.09,1.06c.3.06,1-.58,1-1S11.87,5.38,11.6,4.94ZM9.9,11.06h.51c.29-.45.85-.94.8-1.34S10.49,9,10.09,8.6c-.34.37-.94.73-1,1.12S9.62,10.61,9.9,11.06ZM13.69,4.9h.52c.29-.44.83-.89.8-1.31s-.71-1.07-1-1a1.62,1.62,0,0,0-1.13,1C12.8,4,13.39,4.47,13.69,4.9ZM9.86,17.6h.51c.31-.44.85-.88.84-1.32s-.65-1.09-1-1a1.57,1.57,0,0,0-1.13,1C9.07,16.64,9.59,17.14,9.86,17.6ZM8.78,14.77h.53c.27-.44.76-.9.74-1.32s-.7-1-1-1a1.59,1.59,0,0,0-1.1,1C7.92,13.86,8.49,14.33,8.78,14.77ZM7.34,11.18l0-.52c-.43-.31-.88-.89-1.27-.85a1.62,1.62,0,0,0-1,1.08c0,.28.59,1,1,1S6.9,11.44,7.34,11.18Zm8.5-2.87,0-.53c-.42-.31-.88-.9-1.25-.86A1.61,1.61,0,0,0,13.55,8c-.07.28.58,1,.95,1S15.39,8.57,15.84,8.31ZM6.65,18,6.1,18c-.29.43-.85.9-.79,1.28A1.57,1.57,0,0,0,6.38,20.3c.28.05,1-.61,1-1S6.91,18.43,6.65,18ZM7,15.47l0-.53c-.43-.3-.89-.85-1.28-.81a1.63,1.63,0,0,0-1.08,1.06c-.05.28.61,1,1,1S6.5,15.74,7,15.47Zm6.1-4.74h-.53c-.27.44-.77.9-.73,1.31s.7,1,1,1a1.61,1.61,0,0,0,1.11-1C13.93,11.63,13.35,11.16,13.05,10.73ZM9.53,4.87c.37-.49.76-.79.75-1.07S9.84,3.26,9.6,3c-.25.25-.67.48-.71.77S9.21,4.36,9.53,4.87ZM5.23,6.92c-.36.5-.74.8-.71,1.06s.44.52.68.77c.26-.25.67-.47.71-.75S5.57,7.43,5.23,6.92Zm-.37,6.24c-.51-.37-.8-.75-1.06-.72s-.7.42-.7.67.4.67.67.71S4.34,13.49,4.86,13.16Z"/><path class="cls-2" d="M11.15,26.72c-1.92-.29-3.7-.17-5.19-1.2l0-.42c.49-.08,1-.35,1.44-.19C8.6,25.39,9.75,26,11.15,26.72Z"/><path class="cls-2" d="M18.39,26.55c1.1-.54,2.18-1.12,3.31-1.6.28-.11.7.11,1.05.34C21.49,26.53,19.88,26.3,18.39,26.55Z"/><path class="cls-1" d="M8.15,6c.31.44.91.91.85,1.3A1.63,1.63,0,0,1,7.89,8.4c-.29,0-1-.63-1-1s.5-.9.78-1.35Z"/><path class="cls-1" d="M11.6,4.94c.27.44.79.91.75,1.33s-.74,1-1,1a1.57,1.57,0,0,1-1.09-1.06c-.05-.38.55-.84.87-1.26Z"/><path class="cls-1" d="M9.9,11.06c-.28-.45-.79-.91-.77-1.34s.62-.75,1-1.12c.4.36,1.06.7,1.12,1.11s-.51.89-.8,1.34Z"/><path class="cls-1" d="M13.69,4.9c-.3-.43-.89-.91-.82-1.29a1.62,1.62,0,0,1,1.13-1c.3,0,1,.64,1,1s-.51.87-.8,1.31Z"/><path class="cls-1" d="M9.86,17.6c-.27-.46-.79-1-.73-1.36a1.57,1.57,0,0,1,1.13-1c.3,0,1,.67,1,1s-.53.88-.84,1.32Z"/><path class="cls-1" d="M8.78,14.77c-.29-.44-.86-.91-.8-1.29a1.59,1.59,0,0,1,1.1-1c.27-.05.94.61,1,1s-.47.88-.74,1.32Z"/><path class="cls-1" d="M7.34,11.18c-.44.26-.91.75-1.33.71s-1-.72-1-1a1.62,1.62,0,0,1,1-1.08c.39,0,.84.54,1.27.85Z"/><path class="cls-1" d="M15.84,8.31c-.45.26-.92.75-1.34.7s-1-.73-.95-1a1.61,1.61,0,0,1,1.07-1.08c.37,0,.83.55,1.25.86Z"/><path class="cls-1" d="M6.65,18c.26.44.76.9.72,1.32s-.71,1-1,1a1.57,1.57,0,0,1-1.07-1.05c-.06-.38.5-.85.79-1.28Z"/><path class="cls-1" d="M7,15.47c-.45.27-.93.77-1.35.73s-1-.73-1-1a1.63,1.63,0,0,1,1.08-1.06c.39,0,.85.51,1.28.81Z"/><path class="cls-1" d="M13.05,10.73c.3.43.88.9.82,1.27a1.61,1.61,0,0,1-1.11,1c-.27.06-.94-.61-1-1s.46-.87.73-1.31Z"/><path class="cls-1" d="M9.53,4.87c-.32-.51-.68-.84-.64-1.11s.46-.52.71-.77c.24.27.66.53.68.81S9.9,4.38,9.53,4.87Z"/><path class="cls-1" d="M5.23,6.92c.34.51.72.82.68,1.08s-.45.5-.71.75C5,8.5,4.55,8.26,4.52,8S4.87,7.42,5.23,6.92Z"/><path class="cls-1" d="M4.86,13.16c-.52.33-.84.7-1.09.66s-.68-.46-.67-.71.43-.65.7-.67S4.35,12.79,4.86,13.16Z"/></g></g></svg>